<?xml version="1.0" encoding="utf-8"?>
<!-- Generator: Adobe Illustrator 27.6.1, SVG Export Plug-In . SVG Version: 6.00 Build 0)  -->
<svg version="1.1" id="Capa_1" xmlns="http://www.w3.org/2000/svg" xmlns:xlink="http://www.w3.org/1999/xlink" x="0px" y="0px"
	 viewBox="0 0 595.28 841.89" style="enable-background:new 0 0 595.28 841.89;" xml:space="preserve">
<style type="text/css">
	.st0{fill:none;stroke:#EDE7DF;stroke-width:9;stroke-miterlimit:10;}
	.st1{fill:none;stroke:#EDE7DF;stroke-miterlimit:10;}
	.st2{fill:#EDE7DF;}
	.st3{fill:none;stroke:#EDE7DF;stroke-width:18;stroke-miterlimit:10;}
	.st4{fill:none;stroke:#EDE7DF;stroke-width:2;stroke-miterlimit:10;}
	.st5{fill:#E8E8E8;}
</style>
<g>
	<g>
		<path class="st0" d="M305.7,639.22c125.94,0,228.04-102.09,228.04-228.03c0-125.94-102.1-228.03-228.04-228.03
			S77.65,285.25,77.65,411.19C77.65,537.12,179.75,639.22,305.7,639.22z"/>
		<path class="st1" d="M440.33,227.25l28.72,344.58"/>
		<path class="st1" d="M444.59,230.44l28.72,336.07"/>
		<path class="st1" d="M423.32,333.6l22.34,258.43"/>
		<path class="st1" d="M340.36,185.77l82.96,147.83"/>
		<path class="st1" d="M248.89,405.92l179.75-14.89"/>
		<path class="st1" d="M227.62,463.35l205.27-17.02"/>
		<path class="st1" d="M207.41,518.66l10.64,6.38l219.74-21.16"/>
		<path class="st1" d="M185.08,582.47l257.39-22.33"/>
		<path class="st1" d="M249.95,632.45l145.71-11.7"/>
		<path class="st1" d="M362.69,283.62l29.78,338.2"/>
		<path class="st1" d="M309.51,286.81l31.91,349.9"/>
		<path class="st1" d="M261.65,404.86l21.27,233.97"/>
		<path class="st1" d="M218.05,525.04l7.45,99.97"/>
		<path class="st1" d="M270.16,185.77l27.65,52.11"/>
		<path class="st1" d="M212.73,202.79l61.69,103.16"/>
		<path class="st1" d="M164.87,231.51l86.15,141.45L165.93,424l2.13,4.25l-80.83,47.86"/>
		<path class="st1" d="M131.9,276.17l156.35-92.53"/>
		<path class="st1" d="M207.41,297.44l90.4-59.56"/>
		<path class="st1" d="M78.72,387.84l103.17,180.8"/>
		<path class="st1" d="M126.58,269.79l103.17,166.97"/>
		<path class="st1" d="M222.3,326.16L77.65,414.43"/>
		<path class="st1" d="M131.9,408.05l41.48,71.26"/>
		<path class="st1" d="M106.37,520.78l67.01-41.48"/>
		<path class="st1" d="M207.41,494.19l-92.53-153.15c0,0-18.08-12.76-13.83-22.33l-5.32,3.19"/>
		<path class="st1" d="M85.1,352.75l67.01-41.48"/>
		<path class="st1" d="M161.09,532.54c0,0-32.39,4.19-30.26,25.46"/>
		<path class="st1" d="M323.34,195.35l17.02-9.57"/>
		<path class="st1" d="M397.79,202.79l2.55-1.55l-36.59,26.01"/>
		<path class="st1" d="M431.83,254.9l-39.35,26.59l-105.29,7.44"/>
		<path class="st1" d="M498.83,288.94l-50.65,31.1l-24.87,13.57l-153.16,12.76"/>
		<path class="st1" d="M485.74,297.21l18.41,224.64"/>
		<path class="st1" d="M494.41,407.13l37.18-27.32"/>
		<path class="st1" d="M500.64,474.52h24.19"/>
		<path class="st2" d="M257.96,288.5c0.19,4.41-4.29,8.16-8.62,6.98c-4.07-1.03-7.49-6.35-4.7-10.12c0.39-0.4,1.1-0.69,1.6-0.27
			c0.43,0.35,0.48,0.87,0.71,1.31c0.36,0.77,1.18,1.46,1.88,1.06c0.44-0.2,0.97-0.41,1.54-0.27c1.63,0.51,1.17,2.57,2.3,3.49
			c1.32,1.15,3.75-0.24,3.72-2.03c0.12-0.82-0.38-1.73,0-2.51c0.7-0.58,1.14,0.44,1.3,0.97c0.11,0.3,0.37,1.22,0.2,1.39
			c-0.05-0.69-0.3-1.37-0.65-1.97c-0.12-0.19-0.28-0.36-0.45-0.34c-0.43,0.01-0.29,0.6-0.23,1.03c0.15,0.94,0.31,2-0.26,2.86
			c-0.81,1.28-2.65,2.03-3.97,0.99c-1.21-0.79-0.78-2.85-2.11-3.38c-0.35-0.1-0.78,0.03-1.17,0.22c-1.06,0.56-2.15-0.4-2.56-1.32
			c-0.23-0.46-0.3-0.96-0.56-1.17c-1.2-0.61-1.95,2.02-1.92,2.98c0.8,9.09,13.26,9.44,13.93,0.09L257.96,288.5z"/>
		<path class="st2" d="M246.57,286.17c2.96-3.78,9.5-1.27,7.53,3.65c-0.18,0.4-0.67,1.3-1.06,1.35c0.35-0.45,0.56-0.95,0.71-1.47
			c1.25-4.79-4.05-6.6-7.18-3.52V286.17z"/>
		<path class="st2" d="M256.28,283.63c-0.05,1.93-2.8,1.97-2.92,0C253.34,281.53,256.34,281.48,256.28,283.63z M256.23,283.63
			c-0.06-1.42-2.38-1.42-2.45,0C253.73,285.2,256.23,285.26,256.23,283.63z"/>
		<path class="st2" d="M243.85,287.94c0.83,0.97,2.54,2.55,3.89,1.97c0.35-0.14,0.68-0.37,1.1-0.51c0.44-0.16,0.95,0.03,1.24,0.32
			c1.09,1.15,1.73,2.69,3.39,2.98c2.19,0.38,4.31-2.1,4.43-4.19h0.05c0.03,0.39,0.04,0.81-0.04,1.21c-0.53,1.9-2.37,4.01-4.55,3.5
			c-1.74-0.34-2.54-2.08-3.51-3.23c-0.27-0.26-0.59-0.39-0.94-0.29c-0.7,0.23-1.52,0.85-2.32,0.5c-1.05-0.44-2.28-1.32-2.74-2.24
			L243.85,287.94z"/>
		<path class="st2" d="M245.31,292.54c-0.29-1.19,1.29-1.94,2.27-1.47c0.27,0.1,0.48,0.3,0.68,0.49c1.21,1.27,2.86,2.24,4.57,2.58
			c0.99,0.29,2.04-0.08,2.94-0.41c-0.74,0.77-1.94,1.1-3.02,0.94c-2.22-0.29-3.71-1.99-5.28-3.36c-0.83-0.47-2.31,0.13-2.11,1.21
			l-0.05,0.01V292.54z"/>
		<path class="st3" d="M323.34,183.65L175.5,598.42"/>
		<path class="st4" d="M469.19,498.33h-10.91c-2.36,0-4.27,1.81-4.27,4.03v10.31c0,2.23,1.91,4.03,4.27,4.03h10.91
			c2.36,0,4.27-1.8,4.27-4.03v-10.31C473.46,500.13,471.55,498.33,469.19,498.33z"/>
		<path class="st2" d="M461.07,512.81c0.59,0,1.06-0.48,1.06-1.06c0-0.59-0.48-1.06-1.06-1.06c-0.59,0-1.06,0.48-1.06,1.06
			C460.01,512.33,460.49,512.81,461.07,512.81z"/>
		<path class="st2" d="M466.39,512.81c0.59,0,1.06-0.48,1.06-1.06c0-0.59-0.48-1.06-1.06-1.06s-1.06,0.48-1.06,1.06
			C465.33,512.33,465.8,512.81,466.39,512.81z"/>
		<path class="st2" d="M467.09,502.7h-6.72c-0.49,0-0.89,0.4-0.89,0.89v6.72c0,0.49,0.4,0.89,0.89,0.89h6.72
			c0.49,0,0.89-0.4,0.89-0.89v-6.72C467.99,503.1,467.59,502.7,467.09,502.7z"/>
		<path class="st5" d="M267.69,254.62c-0.38-11.86-12.64-19.58-23.11-15.03c-8.65,3.76-12.02,13.83-9.08,21.91
			c1.91,6.46,6.32,12.57,11.19,17.27c4.77,4.82,4.35,4.06,9.03-0.25C262.03,272.14,267.64,264.09,267.69,254.62z M257.8,255.73
			c-1.18,9.23-14.77,7.18-13.4-1.81C245.84,245.23,258.61,246.97,257.8,255.73z"/>
	</g>
</g>
</svg>
