<?xml version="1.0" encoding="utf-8"?>
<!-- Generator: Adobe Illustrator 27.6.1, SVG Export Plug-In . SVG Version: 6.00 Build 0)  -->
<svg version="1.1" id="Capa_1" xmlns="http://www.w3.org/2000/svg" xmlns:xlink="http://www.w3.org/1999/xlink" x="0px" y="0px"
	 viewBox="0 0 595.28 841.89" style="enable-background:new 0 0 595.28 841.89;" xml:space="preserve">
<style type="text/css">
	.st0{fill:#76655B;}
</style>
<g>
	<path class="st0" d="M101.66,435.47c2.53-1.31,3.59-3.79,4.66-6.16c3.34-7.36,4.59-15.19,4.7-23.2c0.15-10.64,0.1-21.28,0.26-31.92
		c0.12-8.1,2.61-15.64,6.1-22.85c1.7-3.5,4.81-4.52,7.96-2.97c3.1,1.52,4.35,4.59,2.71,8.02c-4.23,8.86-5.19,18.24-5.19,27.89
		c0.01,9.57,0.41,19.14-0.26,28.72c-0.4,5.74-1.6,11.27-3.51,16.65c-0.75,2.12-0.51,2.84,1.86,2.76c3.85-0.14,7.71-0.09,11.57-0.07
		c2.09,0.01,3.17-0.35,1.55-2.61c-6.77-9.48-8.96-20.19-8.62-31.66c0.25-8.51,0.01-17.03,0.17-25.54c0.09-4.91,2.57-7.08,7.51-7.27
		c10.13-0.41,17.85,3.23,22.07,12.9c3.18,7.28,9.08,9.91,16.65,9.87c12.9-0.08,25.81-0.05,38.71-0.1c7.99-0.03,9.69,1.8,9.78,9.87
		c0.15,12.35-2.31,23.91-10.4,34.31c2.26,0.13,3.83,0.1,5.35,0.33c3.66,0.57,6.01,3.26,5.56,6.54c-0.48,3.52-2.59,5.39-6.26,5.34
		c-2.53-0.03-5.06,0.04-7.58,0c-6.37-0.1-12.41,0.4-18.62,2.85c-11.95,4.71-24.15,3.83-35.85-1.75c-1.74-0.83-3.48-1.12-5.38-1.11
		c-11.97,0.04-23.95-0.09-35.92,0.08c-3.73,0.05-7.03-0.36-9.59-3.33C101.66,439.19,101.66,437.33,101.66,435.47z M137.47,392.99
		c0.04,0,0.08,0,0.11,0c0,3.99-0.2,7.98,0.04,11.95c0.57,9.56,4.38,17.75,11.63,24.01c11.16,9.63,24.03,11.91,37.46,6.09
		c13.4-5.81,20.5-16.61,21.37-31.41c0.17-2.96-0.77-3.63-3.45-3.61c-10.76,0.07-21.53-0.09-32.29,0.01
		c-13.08,0.12-22.8-5.06-28.2-17.34c-0.71-1.62-1.61-3.06-3.16-3.98c-2.24-1.32-3.67-1.39-3.55,1.93
		C137.58,384.75,137.47,388.87,137.47,392.99z"/>
	<path class="st0" d="M242.25,481.44c6.21-4.05,11.81-7.55,18.17-9.65c6.58-2.18,13.24-3.68,20.22-3.66
		c16.63,0.04,33.27,0.06,49.9-0.01c13.31-0.05,25.25,4.11,36.29,11.31c0.84,0.55,1.46,1.62,3.09,1.39
		c-0.86-4.76-1.71-9.51-2.58-14.24c-2.97-16.24-2.55-32.44-0.05-48.74c2.47-16.09,6.67-31.85,8.8-47.96
		c1.64-12.4-0.01-24.64-5.08-36.24c-0.76-1.73-1.49-3.51-0.94-5.38c0.72-2.45,2.26-4.24,4.98-4.51c2.83-0.28,4.94,0.98,6.11,3.53
		c4.01,8.74,6.37,17.89,7.14,27.5c1.15,14.39-2.35,28.16-5.13,42.05c-2.97,14.83-5.92,29.71-5.99,44.89
		c-0.09,17.48,3.95,34.38,8.25,51.19c1.54,6.03,3.4,11.91,5.82,17.7c3.03,7.25,4.25,15.02,4.25,22.93c0,17.83,0.02,35.66-0.01,53.49
		c-0.01,8.62-5.76,14.55-14.45,14.56c-50.03,0.05-100.06,0.05-150.09,0c-8.42-0.01-14.25-5.95-14.27-14.32
		c-0.04-18.23-0.07-36.46,0.03-54.69c0.05-8.56,1.92-16.76,5.27-24.69c4.91-11.63,7.04-24.07,9.68-36.31
		c3.11-14.47,4.36-29.16,2.52-43.93c-1.94-15.5-4.87-30.85-8.33-46.06c-9.17-40.27,9.83-79.74,47.86-95.96
		c29.14-12.43,57.03-8.28,82.66,10.44c3.34,2.44,6.4,5.2,9.23,8.2c3.03,3.21,3.29,6.15,0.89,8.81c-2.37,2.62-6.04,2.7-9.13-0.38
		c-8.13-8.1-17.42-14.18-28.33-17.95c-40.45-13.96-84.29,11.18-92.26,53.08c-2.29,12.05-0.77,23.97,1.69,35.86
		c4.2,20.36,8.9,40.67,8.53,61.67c-0.2,11.45-2.07,22.68-4.55,33.82C242.31,479.68,242.33,480.2,242.25,481.44z M306.07,589.66
		c0-0.01,0-0.01,0-0.02c24.34,0,48.68-0.04,73.02,0.05c3.16,0.01,4.52-0.78,4.49-4.25c-0.15-17.82,0.27-35.65-0.17-53.47
		c-0.42-16.89-7.69-30.67-21.13-41.03c-4.68-3.61-4.79-3.54-7.59,1.57c-14.11,25.72-28.22,51.45-42.3,77.2
		c-1.46,2.67-3.04,5-6.55,4.96c-3.42-0.04-4.67-2.52-6.03-5.01c-14.3-26.08-28.67-52.12-42.87-78.25c-1.69-3.12-2.93-3.69-5.88-1.46
		c-14.55,10.98-22.13,25.54-22.41,43.68c-0.27,17.02,0.05,34.05-0.12,51.07c-0.04,3.8,1.01,5.06,4.93,5.04
		C257.65,589.58,281.86,589.66,306.07,589.66z M306.43,480.11c-2.39,0-4.78,0-7.17,0c-2.39,0-4.78,0.05-7.17-0.03
		c-2.05-0.07-2.32,0.72-1.38,2.36c1.62,2.82,3.76,5.09,6.61,6.72c6.05,3.47,6.66,5.09,5.33,11.91c-2.12,10.88-4.13,21.79-6.06,32.71
		c-0.29,1.62-1.02,3.37-0.09,5.06c2.8,5.12,5.6,10.25,8.38,15.37c0.9,1.66,1.7,1.35,2.48-0.09c2.78-5.13,5.52-10.28,8.35-15.39
		c0.68-1.22,0.27-2.29,0.06-3.45c-2.18-12.23-4.27-24.47-6.58-36.67c-0.83-4.38,0.7-7.16,4.65-8.92c2.99-1.34,5.26-3.55,7.06-6.25
		c1.4-2.1,1.8-3.55-1.72-3.38C314.94,480.27,310.68,480.11,306.43,480.11z M286,519.77c0.3-0.01,0.59-0.02,0.89-0.04
		c1.1-6.08,2.14-12.17,3.34-18.24c0.33-1.68-0.07-2.81-1.42-3.74c-5.43-3.77-8.96-8.89-10.89-15.19c-0.29-0.96-0.39-2.54-2.23-2.18
		c-2.59,0.52-5.2,0.93-7.78,1.49c-1.65,0.36-2.06,1.1-1.11,2.82C273.27,496.34,279.62,508.07,286,519.77z M325.28,519.5
		c1.28-0.18,1.44-0.88,1.75-1.44c5.5-10,11.03-19.99,16.5-30.01c3.23-5.92,3.02-6.24-3.95-7.08c-0.4-0.05-0.84,0.04-1.19-0.11
		c-2.92-1.26-3.74,0.31-4.57,2.83c-1.76,5.41-4.8,10.12-9.6,13.32c-2.31,1.54-2.71,3.26-2.2,5.7
		C323.16,508.26,324.18,513.84,325.28,519.5z"/>
	<path class="st0" d="M442.49,331.36c24.86-0.99,41.48,15.95,45.91,33.19c1.62,6.29,1.37,12.62,1.25,18.96
		c-0.05,2.68,0.69,3.87,3.32,4.79c13.42,4.7,20.32,19.1,16.02,32.91c-4.15,13.33-18.25,21.18-31.86,17.38
		c-2.86-0.8-4.44,0.33-6.33,1.77c-27.65,20.98-67.32,6.27-74.83-28.37c-1.42-6.53-1.19-13.22-1.1-19.86
		c0.12-8.49-0.6-17.03,1.08-25.44C399.62,348.39,416.33,330.2,442.49,331.36z M477.76,383.23c0,0-0.01,0-0.01,0
		c0-2.66,0.07-5.32-0.01-7.97c-0.37-12.43-5.96-21.78-16.76-27.93c-7.61-4.34-15.88-4.42-24.33-3.77
		c-17.52,1.34-29.96,16.25-29.76,33.76c0.03,2.61,1.46,2.71,3.29,2.77c1.84,0.07,3.5,0.09,3.44-2.55
		c-0.08-3.59,0.11-7.18,0.03-10.76c-0.08-3.64,1.28-6.25,4.97-7.07c3.25-0.73,5.88,1.27,7.05,5.46c1.14,4.08,3.3,7.5,6.06,10.6
		c11.79,13.22,27.69,17.35,44.26,19.98c2.06,0.33,1.75-0.99,1.75-2.15C477.77,390.14,477.76,386.68,477.76,383.23z M414.46,392.06
		c-1.24,0-2.06,0.11-2.83-0.02c-3.94-0.65-5.2,1.13-4.83,4.88c0.41,4.09,0.12,8.27,0.85,12.29c2.91,15.92,17.1,28.2,32.73,28.67
		c17.55,0.53,31.91-9.93,36.31-26.22c0.75-2.78,0.13-3.78-2.64-4.16c-17.2-2.35-33.28-7.5-46.69-19.14
		c-0.62-0.54-1.6-1.66-2.24-0.32C422.7,393.12,418.11,391.85,414.46,392.06z M498.49,412.9c-0.35-4.26-1.75-8.42-5.76-11.25
		c-0.71-0.5-1.43-1.45-2.42-1.03c-1.13,0.48-0.56,1.65-0.55,2.48c0.03,7.71-2.01,14.86-5.5,21.68c-0.38,0.74-1.45,1.67-0.55,2.42
		c0.57,0.48,1.77,0.36,2.66,0.26C492.88,426.71,498.59,420,498.49,412.9z"/>
	<path class="st0" d="M367.5,404.52c-2.02,13.35-8.65,26.38-20.29,36.52c-36.62,31.89-92.97,12.46-102.34-35.23
		c-0.66-3.37-1.01-6.87-0.97-10.31c0.16-15.28-1.05-30.61,0.79-45.82c1.41-11.63,6.51-21.83,14.44-30.45
		c3.36-3.65,7.88-2.66,10.36,2.07c2.21,4.23,4.23,8.56,6.86,12.57c20.52,31.34,49.64,50.61,85.21,60.85
		C366.7,396.22,367.69,397.56,367.5,404.52z M255.85,376.16c0.11,9.6-0.67,18.56,0.95,27.37c4.93,26.79,29.72,43.33,53.17,40.85
		c20.41-2.16,34.44-12.65,42.57-31.2c3.37-7.7,3.07-7.73-4.87-10.37c-25.06-8.32-46.63-22.17-64.84-41.27
		c-6.72-7.05-12.58-14.76-17.67-23.07c-2.35-3.84-2.82-3.78-4.85,0.36c-1.34,2.74-2.33,5.62-2.99,8.61
		C255.21,357.18,256.06,367.04,255.85,376.16z"/>
	<path class="st0" d="M455.02,554.14c-13.17,0-26.35,0.03-39.52-0.02c-4.61-0.02-7.33-2.01-7.49-5.49c-0.15-3.3,1.25-5.7,4.79-6.2
		c1.7-0.24,3.45-0.26,5.17-0.26c23.69,0,47.37-0.08,71.06,0.12c3.89,0.03,4.87-1.03,4.78-4.86c-0.28-11.3,0.26-22.63-0.22-33.93
		c-0.56-13.26-7.22-23-18.91-29.34c-2.1-1.14-2.87-1.07-3.79,1.47c-4.41,12.28-12.52,21.42-24.13,27.47
		c-2.97,1.55-5.69,1.52-8.67-0.02c-11.65-6-19.69-15.18-24.15-27.44c-0.79-2.17-1.4-2.57-3.57-1.53c-3.42,1.65-6.15,4.15-9.14,6.35
		c-3.45,2.54-6.59,2.33-8.78-0.48c-2.1-2.7-1.52-6.13,1.42-8.81c9.46-8.59,20.55-12.84,33.35-12.71
		c11.18,0.11,22.36-0.14,33.53,0.19c21.68,0.63,40.08,16.66,44.13,37.94c1.16,6.08,0.71,12.19,0.77,18.3
		c0.09,9.31,0.03,18.63,0.03,27.94c0,7.67-3.36,11.18-11.15,11.26c-11.18,0.12-22.35,0.04-33.53,0.05c-2,0-3.99,0-5.99,0
		C455.02,554.16,455.02,554.15,455.02,554.14z M442.59,470.48c0-0.01,0-0.02,0-0.03c-4.91,0-9.83,0.06-14.74-0.03
		c-2.24-0.04-3.11,0.34-2.04,2.82c3.2,7.4,7.93,13.38,14.95,17.53c1.42,0.84,2.38,0.64,3.6-0.14c6.81-4.34,11.79-10.14,14.74-17.71
		c0.82-2.11,0.25-2.51-1.77-2.48C452.42,470.55,447.5,470.48,442.59,470.48z"/>
	<path class="st0" d="M158.69,554.13c-12.5,0-25,0.03-37.5-0.01c-8.22-0.03-11.66-3.43-11.66-11.56c-0.01-13.03,0-26.06,0.13-39.09
		c0.21-20.48,16.07-39.6,37.13-44.06c4.47-0.95,8.97-0.9,13.47-0.9c10.9-0.01,21.82-0.19,32.71,0.2
		c10.44,0.38,19.47,4.75,27.35,11.47c3.18,2.71,3.5,6.03,1.21,8.78c-2.1,2.53-5.27,2.74-8.56,0.59c-2.66-1.74-5.03-3.85-7.89-5.34
		c-2.39-1.25-2.98-0.58-3.83,1.68c-4.55,12.2-12.57,21.39-24.25,27.34c-2.87,1.46-5.46,1.47-8.28,0.03
		c-11.37-5.82-19.53-14.56-23.92-26.57c-1.17-3.21-2.43-3.76-5.34-1.99c-11.02,6.7-17.43,16.26-17.81,29.25
		c-0.33,11.43-0.01,22.87-0.2,34.31c-0.05,3.15,0.88,4.04,4.03,4.03c23.27-0.13,46.54-0.08,69.82-0.08c6.25,0,9.18,1.79,9.33,5.68
		c0.15,4.14-2.97,6.31-9.22,6.32c-12.23,0.02-24.47,0-36.7,0C158.69,554.16,158.69,554.15,158.69,554.13z M190.32,470.66
		c-11.87,0-23.25,0-34.94,0c2.81,8.86,8.06,15.36,15.66,20.09c1.56,0.97,2.65,0.53,3.97-0.3
		C182.41,485.83,187.25,479.28,190.32,470.66z"/>
	<path class="st0" d="M215.83,336.62c-0.02,2.7-1.02,4.49-3.09,5.55c-2.55,1.31-4.89,0.7-7-1.07c-5.35-4.47-11.25-8-17.95-9.96
		c-15.23-4.45-29.59-2.51-42.91,6.27c-1.33,0.88-2.63,1.82-4.03,2.56c-3.01,1.6-5.67,1.12-7.67-1.72c-2.03-2.88-1.43-5.62,1.07-7.81
		c4.02-3.52,8.58-6.32,13.5-8.32c23.38-9.5,45.05-6.5,64.86,9.26C214.41,332.82,216.12,334.35,215.83,336.62z"/>
</g>
</svg>
