<?xml version="1.0" encoding="utf-8"?>
<!-- Generator: Adobe Illustrator 27.6.1, SVG Export Plug-In . SVG Version: 6.00 Build 0)  -->
<svg version="1.1" id="Capa_1" xmlns="http://www.w3.org/2000/svg" xmlns:xlink="http://www.w3.org/1999/xlink" x="0px" y="0px"
	 viewBox="0 0 595.28 841.89" style="enable-background:new 0 0 595.28 841.89;" xml:space="preserve">
<style type="text/css">
	.st0{fill:#77655C;}
	.st1{fill:#EDE7DF;}
</style>
<path class="st0" d="M310.47,487.46c56.37,0,102.05-46.25,102.05-103.29c0-57.05-45.69-103.29-102.05-103.29
	c-56.35,0-102.04,46.25-102.04,103.29C208.43,441.21,254.12,487.46,310.47,487.46z"/>
<path class="st0" d="M329.36,383.62c-11.23,5.71-21.87,11.12-32.52,16.54c-0.16-10.71-0.34-21.41-0.49-32.14
	C297.97,368.07,319.34,378.12,329.36,383.62z"/>
<path class="st1" d="M350.49,420.94h-80.84c-6.6,0-12-5.4-12-12v-47.62c0-6.6,5.4-12,12-12h80.84c6.6,0,12,5.4,12,12v47.62
	C362.49,415.54,357.09,420.94,350.49,420.94z"/>
<polygon class="st0" points="297.64,403.74 297.7,384.17 297.77,364.59 314.69,374.43 331.61,384.28 314.62,394.01 "/>
</svg>
