<?xml version="1.0" encoding="utf-8"?>
<!-- Generator: Adobe Illustrator 27.6.1, SVG Export Plug-In . SVG Version: 6.00 Build 0)  -->
<svg version="1.1" id="Capa_1" xmlns="http://www.w3.org/2000/svg" xmlns:xlink="http://www.w3.org/1999/xlink" x="0px" y="0px"
	 viewBox="0 0 595.28 841.89" style="enable-background:new 0 0 595.28 841.89;" xml:space="preserve">
<style type="text/css">
	.st0{fill:#77665D;}
	.st1{fill:#EDE7DF;stroke:#77665D;stroke-miterlimit:10;}
</style>
<path class="st0" d="M236.9,305.38c0.82,4.8,2.09,9.44,2.67,14.21c1.75,14.31,0.61,28.4-2.89,42.33
	c-3.66,14.53-10.19,27.87-17,41.11c-10.74,20.91-16.2,43.2-15.16,66.73c0.9,20.5,6.04,39.95,16.74,57.68
	c1.33,2.23,1.72,4.32-0.78,5.87c-2.6,1.6-3.95-0.32-5.14-2.23c-7.74-12.78-12.49-26.66-15.43-41.23
	c-2.4-12.05-2.89-24.25-1.87-36.43c1.53-18.43,6.79-35.87,15.16-52.34c6.31-12.39,12.54-24.79,16.15-38.35
	c5.17-19.48,5.87-38.88-0.34-58.24c-2.62-8.17-6.38-15.79-11.69-22.61c-0.73-0.95-1.6-1.84-1.75-3.06c-0.17-1.55,0.58-2.69,1.96-3.4
	c1.77-0.9,3.15-0.24,4.29,1.09c2.77,3.2,4.95,6.82,7.2,10.36c4.37,6.89,10.24,12.22,17.71,15.52c7.03,3.1,13.51,1.38,19.33-3.25
	c6.77-5.36,11.16-12.54,14.94-20.16c0.99-1.99,1.58-4.29,4.61-4.22c2.89,0.05,3.37,2.26,4.27,4.17c3.42,7.18,7.62,13.83,13.63,19.14
	c7.98,7.03,16.69,7.71,25.44,1.67c5.77-4,11.04-8.56,14.41-14.99c1.5-2.84,3.61-5.36,5.51-7.98c1.38-1.92,3.2-2.64,5.26-1.04
	c2.13,1.67,1.5,3.57,0.05,5.36c-9.27,11.38-14.04,24.69-16.01,38.98c-2.21,16.06,0.12,31.73,4.85,47.18
	c4.2,13.73,11.38,26.05,17.34,38.95c10.11,21.83,14.38,44.82,12.61,68.79c-1.38,19.04-6.69,37.01-16.03,53.73
	c-0.58,1.04-1.21,2.04-1.87,3.03c-1.19,1.77-2.67,3.08-4.8,1.63c-1.99-1.36-2.35-3.2-1.02-5.34c3.88-6.14,6.91-12.71,9.34-19.53
	c6.65-18.53,8.95-37.57,6.94-57.22c-2.04-19.84-8.8-38.06-18.12-55.5c-7.66-14.36-13.12-29.54-15.64-45.62
	c-2.3-14.63-1.89-29.23,2.09-43.61c0.15-0.53,0.39-1.02-0.1-1.79c-3.32,2.13-6.79,4.1-10.65,5.04c-11.3,2.79-19.96-2.04-27.48-9.82
	c-4-4.15-7.11-8.95-9.92-13.97c-1.53-0.05-1.55,1.36-2.04,2.16c-4,6.74-8.66,12.95-15.21,17.46c-9.05,6.26-18.41,6.57-28.04,1.29
	c-1.09-0.61-2.06-1.58-3.66-1.65L236.9,305.38z"/>
<path class="st1" d="M288.83,326.94c0,6.91-0.02,13.8,0,20.71c0,2.38-0.36,4.49-3.25,4.58c-3.06,0.1-3.71-2.11-3.71-4.58
	c-0.02-13.7-0.02-27.41-0.02-41.11c0-2.06,0.56-3.88,2.79-4.58c1.6-0.51,2.64,0.39,3.61,1.5c0.82,0.95,0.53,2.04,0.56,3.08
	c0,6.79,0,13.61,0,20.4H288.83z"/>
<path class="st1" d="M284.73,385.61c-2.23-0.05-4.41-2.3-4.12-4.51c0.32-2.43,1.82-3.91,4.29-4.05c2.16-0.12,4.39,2.26,4.37,4.39
	c-0.02,2.23-2.21,4.22-4.56,4.17H284.73z"/>
<path class="st0" d="M311.45,426.89c-2.13-2.18-4.03-0.95-5.77,0.92c-3.53,3.77-7.09,7.5-10.65,11.24l-0.28-30.27h-18.92l0.53,31.13
	c-4.27-4.27-8.54-8.55-12.85-12.8c-1.48-1.46-3.15-2.01-4.85-0.36c-1.75,1.7-1.46,3.47,0,5.17c0.49,0.56,1.07,1.07,1.6,1.6
	c4.83,4.8,9.63,9.63,14.48,14.41c1.14,1.12,1.79,2.26,1.94,3.9c0.51,5.46,1.19,10.92,1.87,16.37c1.72,14.14,4.12,28.21,3.25,40.55
	v-0.02c0,7.71-0.02,13.46,0,19.19c0.02,2.4,0.95,4.51,3.61,4.46c2.62-0.05,3.44-1.94,3.42-4.51c-0.1-9.51,0.02-19.04-0.07-28.55
	c-0.02-3.47,0.56-6.86,0.95-10.28c1.14-10.07,2.62-20.08,3.57-30.15c0.56-5.99,1.94-11.18,6.82-15.33
	c3.86-3.27,7.03-7.32,10.53-11.01C312.26,430.82,313.44,428.91,311.45,426.89z M286.93,453.07c-0.41,3.66-0.78,7.35-1.16,11.01
	c-0.24-0.05-0.46-0.12-0.68-0.17l0.02-0.02c-0.44-3.49-0.85-7.01-1.36-10.5c-0.17-1.16-0.05-1.87,1.38-1.79
	C286.16,451.66,287.1,451.54,286.93,453.07z"/>
</svg>
