<?xml version="1.0" encoding="utf-8"?>
<!-- Generator: Adobe Illustrator 27.6.1, SVG Export Plug-In . SVG Version: 6.00 Build 0)  -->
<svg version="1.1" id="Capa_1" xmlns="http://www.w3.org/2000/svg" xmlns:xlink="http://www.w3.org/1999/xlink" x="0px" y="0px"
	 viewBox="0 0 595.28 841.89" style="enable-background:new 0 0 595.28 841.89;" xml:space="preserve">
<style type="text/css">
	.st0{fill:#77665D;}
	.st1{fill:#EDE7DF;stroke:#77665D;stroke-miterlimit:10;}
</style>
<path class="st0" d="M254.84,320.62c0.82,4.8,2.08,9.42,2.66,14.2c1.74,14.29,0.61,28.37-2.88,42.28
	c-3.66,14.51-10.17,27.84-16.98,41.06c-10.73,20.88-16.18,43.15-15.14,66.65c0.9,20.47,6.03,39.9,16.72,57.61
	c1.33,2.23,1.72,4.31-0.78,5.86c-2.59,1.6-3.95-0.32-5.14-2.23c-7.73-12.77-12.48-26.62-15.41-41.18
	c-2.37-12.02-2.83-24.2-1.82-36.36c1.53-18.41,6.78-35.83,15.14-52.28c6.3-12.38,12.52-24.76,16.13-38.3
	c5.16-19.45,5.86-38.84-0.34-58.17c-2.62-8.16-6.37-15.77-11.68-22.58c-0.73-0.94-1.6-1.84-1.74-3.05
	c-0.17-1.55,0.58-2.69,1.96-3.39c1.77-0.9,3.15-0.24,4.29,1.09c2.76,3.2,4.94,6.81,7.2,10.34c4.36,6.88,10.22,12.21,17.68,15.51
	c7.03,3.1,13.49,1.38,19.31-3.25c6.76-5.35,11.14-12.53,14.92-20.13c0.99-1.99,1.57-4.29,4.6-4.22c2.88,0.05,3.37,2.25,4.26,4.17
	c3.42,7.17,7.61,13.81,13.61,19.11c7.97,7.03,16.67,7.7,25.41,1.67c5.77-4,11.02-8.55,14.39-14.97c1.5-2.83,3.61-5.35,5.5-7.97
	c1.38-1.91,3.2-2.64,5.26-1.04c2.13,1.67,1.5,3.56,0.05,5.35c-9.25,11.36-14.03,24.66-15.99,38.93c-2.2,16.04,0.12,31.69,4.85,47.12
	c4.19,13.71,11.36,26.02,17.32,38.91c10.1,21.8,14.37,44.77,12.6,68.71c-1.38,19.02-6.69,36.97-16.01,53.66
	c-0.58,1.04-1.21,2.04-1.87,3.03c-1.19,1.77-2.66,3.08-4.8,1.62c-1.99-1.36-2.35-3.2-1.02-5.33c3.88-6.13,6.9-12.7,9.33-19.5
	c6.64-18.51,8.94-37.53,6.93-57.15c-2.04-19.82-8.79-38.01-18.1-55.43c-7.66-14.34-13.11-29.51-15.63-45.57
	c-2.3-14.61-1.89-29.19,2.08-43.56c0.15-0.53,0.39-1.02-0.1-1.79c-3.32,2.13-6.78,4.09-10.64,5.04
	c-11.29,2.79-19.94-2.04-27.45-9.81c-4-4.14-7.1-8.94-9.91-13.95c-1.53-0.05-1.55,1.36-2.04,2.16c-4,6.74-8.65,12.94-15.19,17.44
	c-9.04,6.25-18.39,6.57-28,1.28c-1.09-0.61-2.06-1.57-3.66-1.65L254.84,320.62z"/>
<path class="st1" d="M306.73,342.16c0,6.9-0.02,13.78,0,20.69c0,2.37-0.36,4.48-3.25,4.58c-3.05,0.1-3.71-2.11-3.71-4.58
	c-0.02-13.69-0.02-27.38-0.02-41.06c0-2.06,0.56-3.88,2.79-4.58c1.6-0.51,2.64,0.39,3.61,1.5c0.82,0.94,0.53,2.03,0.56,3.08
	c0,6.78,0,13.59,0,20.37H306.73z"/>
<path class="st1" d="M302.64,400.76c-2.23-0.05-4.41-2.3-4.12-4.51c0.32-2.42,1.82-3.9,4.29-4.05c2.16-0.12,4.38,2.25,4.36,4.38
	c-0.02,2.23-2.2,4.22-4.55,4.17H302.64z"/>
<path class="st0" d="M327.37,440.86l6.24-6.73l-31.76,0.02l-30.55-0.02l6.32,7.01c-0.33,0.16-0.67,0.38-1,0.71
	c-1.74,1.7-1.45,3.46,0,5.16c0.48,0.56,1.07,1.07,1.6,1.6c4.82,4.8,9.62,9.62,14.46,14.39c1.14,1.11,1.79,2.25,1.94,3.9
	c0.51,5.45,1.19,10.9,1.87,16.35c1.72,14.12,4.12,28.18,3.25,40.51v-0.02c0,7.7-0.02,13.45,0,19.16c0.02,2.4,0.94,4.5,3.61,4.46
	c2.62-0.05,3.44-1.94,3.42-4.5c-0.1-9.5,0.02-19.02-0.07-28.52c-0.02-3.46,0.56-6.86,0.94-10.27c1.14-10.05,2.62-20.06,3.56-30.11
	c0.56-5.98,1.94-11.17,6.81-15.31c3.85-3.27,7.03-7.32,10.51-11c1.62-1.72,2.81-3.63,0.82-5.64
	C328.66,441.3,328,440.96,327.37,440.86z M304.84,468.14c-0.41,3.66-0.78,7.34-1.16,11c-0.24-0.05-0.46-0.12-0.68-0.17l0.02-0.02
	c-0.44-3.49-0.85-7-1.36-10.49c-0.17-1.16-0.05-1.87,1.38-1.79C304.07,466.73,305.01,466.61,304.84,468.14z"/>
</svg>
