<?xml version="1.0" encoding="utf-8"?>
<!-- Generator: Adobe Illustrator 27.6.1, SVG Export Plug-In . SVG Version: 6.00 Build 0)  -->
<svg version="1.1" id="Capa_1" xmlns="http://www.w3.org/2000/svg" xmlns:xlink="http://www.w3.org/1999/xlink" x="0px" y="0px"
	 viewBox="0 0 595.28 841.89" style="enable-background:new 0 0 595.28 841.89;" xml:space="preserve">
<style type="text/css">
	.st0{fill:#77665D;}
	.st1{fill:#EDE7DF;stroke:#77665D;stroke-miterlimit:10;}
</style>
<path class="st0" d="M253.36,319.77c0.83,4.8,2.09,9.44,2.67,14.22c1.75,14.32,0.61,28.42-2.89,42.34
	c-3.66,14.54-10.19,27.88-17.01,41.13c-10.75,20.92-16.21,43.22-15.17,66.76c0.9,20.5,6.04,39.97,16.74,57.7
	c1.33,2.23,1.72,4.32-0.78,5.87c-2.6,1.6-3.96-0.32-5.14-2.23c-7.74-12.79-12.5-26.67-15.43-41.25c-2.4-12.06-2.89-24.27-1.87-36.45
	c1.53-18.44,6.79-35.89,15.17-52.37c6.31-12.4,12.54-24.8,16.16-38.36c5.17-19.49,5.87-38.9-0.34-58.26
	c-2.62-8.18-6.38-15.8-11.7-22.62c-0.73-0.95-1.6-1.84-1.75-3.06c-0.17-1.55,0.58-2.69,1.97-3.4c1.77-0.9,3.15-0.24,4.29,1.09
	c2.77,3.2,4.95,6.82,7.21,10.36c4.37,6.89,10.24,12.23,17.71,15.53c7.04,3.11,13.52,1.38,19.34-3.25
	c6.77-5.36,11.16-12.55,14.95-20.17c0.99-1.99,1.58-4.3,4.61-4.22c2.89,0.05,3.37,2.26,4.27,4.17c3.42,7.18,7.62,13.83,13.64,19.15
	c7.98,7.04,16.69,7.72,25.45,1.67c5.77-4,11.04-8.57,14.41-15c1.5-2.84,3.62-5.36,5.51-7.98c1.38-1.92,3.2-2.64,5.27-1.04
	c2.14,1.67,1.5,3.57,0.05,5.36c-9.27,11.38-14.05,24.7-16.01,39c-2.21,16.06,0.12,31.74,4.85,47.2
	c4.2,13.73,11.38,26.06,17.35,38.97c10.12,21.84,14.39,44.84,12.62,68.82c-1.38,19.05-6.7,37.03-16.04,53.75
	c-0.58,1.04-1.21,2.04-1.87,3.03c-1.19,1.77-2.67,3.08-4.8,1.63c-1.99-1.36-2.35-3.2-1.02-5.34c3.88-6.14,6.92-12.72,9.34-19.53
	c6.65-18.54,8.95-37.59,6.94-57.24c-2.04-19.85-8.81-38.07-18.13-55.52c-7.67-14.37-13.13-29.56-15.65-45.64
	c-2.31-14.63-1.89-29.24,2.09-43.63c0.15-0.53,0.39-1.02-0.1-1.8c-3.32,2.14-6.79,4.1-10.65,5.05c-11.31,2.79-19.97-2.04-27.49-9.83
	c-4-4.15-7.11-8.95-9.92-13.98c-1.53-0.05-1.55,1.36-2.04,2.16c-4,6.75-8.66,12.96-15.21,17.47c-9.05,6.26-18.42,6.58-28.05,1.29
	c-1.09-0.61-2.06-1.58-3.66-1.65L253.36,319.77z"/>
<path class="st0" d="M298.32,523.24c0.87-12.35-1.53-26.43-3.25-40.57c-0.68-5.46-1.36-10.92-1.87-16.38
	c-0.15-1.65-0.8-2.79-1.94-3.91c-4.85-4.78-9.66-9.61-14.49-14.41c-0.53-0.53-1.12-1.04-1.6-1.6c-1.46-1.7-1.75-3.47,0-5.17
	c1.7-1.65,3.37-1.09,4.85,0.36c5.24,5.17,10.43,10.39,15.63,15.58c2.81,2.81,9.73,2.81,12.47-0.05c4.71-4.93,9.41-9.85,14.07-14.83
	c1.75-1.87,3.64-3.11,5.78-0.92c1.99,2.01,0.8,3.93-0.83,5.65c-3.49,3.69-6.67,7.74-10.53,11.02c-4.88,4.15-6.26,9.34-6.82,15.34
	c-0.95,10.07-2.43,20.09-3.57,30.16c-0.39,3.42-0.97,6.82-0.95,10.29c0.1,9.51-0.02,19.05,0.07,28.56c0.02,2.57-0.8,4.46-3.42,4.51
	c-2.67,0.05-3.59-2.06-3.62-4.46c-0.02-5.73,0-11.48,0-19.19V523.24z M301.6,478.37c0.22,0.05,0.44,0.12,0.68,0.17
	c0.39-3.66,0.75-7.35,1.16-11.02c0.17-1.53-0.78-1.41-1.8-1.48c-1.43-0.07-1.55,0.63-1.38,1.8c0.51,3.49,0.92,7.01,1.36,10.51
	L301.6,478.37z"/>
<path class="st1" d="M305.31,341.34c0,6.92-0.02,13.81,0,20.72c0,2.38-0.36,4.49-3.25,4.59c-3.06,0.1-3.71-2.11-3.71-4.59
	c-0.02-13.71-0.02-27.42-0.02-41.13c0-2.06,0.56-3.88,2.79-4.59c1.6-0.51,2.64,0.39,3.62,1.5c0.83,0.95,0.53,2.04,0.56,3.08
	c0,6.79,0,13.61,0,20.41H305.31z"/>
<path class="st1" d="M301.21,400.04c-2.23-0.05-4.42-2.31-4.13-4.51c0.32-2.43,1.82-3.91,4.29-4.05c2.16-0.12,4.39,2.26,4.37,4.39
	c-0.02,2.23-2.21,4.22-4.56,4.17H301.21z"/>
<path class="st0" d="M301.96,437.64l16.89-0.02l-8.47,6.58l-8.42,6.58l-8.42-6.58l-8.47-6.58L301.96,437.64z"/>
</svg>
