<?xml version="1.0" encoding="utf-8"?>
<!-- Generator: Adobe Illustrator 27.6.1, SVG Export Plug-In . SVG Version: 6.00 Build 0)  -->
<svg version="1.1" id="Capa_1" xmlns="http://www.w3.org/2000/svg" xmlns:xlink="http://www.w3.org/1999/xlink" x="0px" y="0px"
	 viewBox="0 0 595.28 841.89" style="enable-background:new 0 0 595.28 841.89;" xml:space="preserve">
<style type="text/css">
	.st0{fill:#77665D;}
	.st1{fill:#EDE7DF;stroke:#77665D;stroke-miterlimit:10;}
</style>
<path class="st0" d="M244.34,315.19c0.82,4.8,2.08,9.43,2.67,14.21c1.75,14.3,0.61,28.39-2.89,42.31
	c-3.66,14.52-10.18,27.86-17,41.1c-10.74,20.9-16.2,43.18-15.15,66.7c0.9,20.49,6.04,39.93,16.73,57.66
	c1.33,2.23,1.72,4.32-0.78,5.87c-2.59,1.6-3.95-0.32-5.14-2.23c-7.73-12.78-12.49-26.65-15.42-41.22
	c-2.4-12.05-2.89-24.25-1.87-36.42c1.53-18.43,6.79-35.86,15.15-52.32c6.3-12.39,12.53-24.78,16.15-38.33
	c5.16-19.47,5.87-38.87-0.34-58.21c-2.62-8.17-6.38-15.78-11.69-22.6c-0.73-0.95-1.6-1.84-1.75-3.05c-0.17-1.55,0.58-2.69,1.96-3.39
	c1.77-0.9,3.15-0.24,4.29,1.09c2.76,3.2,4.95,6.81,7.2,10.35c4.36,6.89,10.23,12.22,17.7,15.52c7.03,3.1,13.5,1.38,19.32-3.25
	c6.76-5.36,11.15-12.54,14.93-20.15c0.99-1.99,1.58-4.29,4.61-4.22c2.89,0.05,3.37,2.25,4.27,4.17c3.42,7.18,7.61,13.82,13.63,19.13
	c7.98,7.03,16.68,7.71,25.43,1.67c5.77-4,11.03-8.56,14.4-14.98c1.5-2.84,3.61-5.36,5.5-7.98c1.38-1.92,3.2-2.64,5.26-1.04
	c2.13,1.67,1.5,3.56,0.05,5.36c-9.26,11.37-14.04,24.68-16,38.96c-2.21,16.05,0.12,31.71,4.85,47.16
	c4.19,13.72,11.37,26.04,17.34,38.94c10.11,21.82,14.38,44.81,12.61,68.76c-1.38,19.03-6.69,37-16.03,53.71
	c-0.58,1.04-1.21,2.04-1.87,3.03c-1.19,1.77-2.67,3.08-4.8,1.62c-1.99-1.36-2.35-3.2-1.02-5.33c3.88-6.13,6.91-12.7,9.33-19.52
	c6.64-18.52,8.95-37.56,6.93-57.2c-2.04-19.83-8.8-38.04-18.11-55.47c-7.66-14.35-13.12-29.53-15.64-45.61
	c-2.3-14.62-1.89-29.22,2.08-43.59c0.15-0.53,0.39-1.02-0.1-1.79c-3.32,2.13-6.79,4.1-10.64,5.04c-11.3,2.79-19.95-2.04-27.47-9.82
	c-4-4.15-7.1-8.95-9.92-13.97c-1.53-0.05-1.55,1.36-2.04,2.16c-4,6.74-8.66,12.95-15.2,17.46c-9.04,6.26-18.4,6.57-28.03,1.28
	c-1.09-0.61-2.06-1.58-3.66-1.65L244.34,315.19z"/>
<path class="st0" d="M289.27,518.49c0.87-12.34-1.53-26.4-3.25-40.54c-0.68-5.46-1.36-10.91-1.87-16.37
	c-0.15-1.65-0.8-2.79-1.94-3.9c-4.85-4.78-9.65-9.6-14.47-14.4c-0.53-0.53-1.12-1.04-1.6-1.6c-1.45-1.7-1.75-3.47,0-5.16
	c1.7-1.65,3.37-1.09,4.85,0.36c5.24,5.16,10.43,10.38,15.61,15.57c2.81,2.81,9.72,2.81,12.46-0.05c4.7-4.92,9.41-9.84,14.06-14.81
	c1.75-1.87,3.64-3.1,5.77-0.92c1.99,2.01,0.8,3.93-0.82,5.65c-3.49,3.69-6.67,7.73-10.52,11.01c-4.87,4.15-6.26,9.33-6.81,15.32
	c-0.95,10.06-2.42,20.08-3.56,30.14c-0.39,3.42-0.97,6.81-0.95,10.28c0.1,9.5-0.02,19.03,0.07,28.54c0.02,2.57-0.8,4.46-3.42,4.51
	c-2.67,0.05-3.59-2.06-3.61-4.46c-0.02-5.72,0-11.47,0-19.18V518.49z M292.54,473.66c0.22,0.05,0.44,0.12,0.68,0.17
	c0.39-3.66,0.75-7.35,1.16-11.01c0.17-1.53-0.78-1.41-1.79-1.48c-1.43-0.07-1.55,0.63-1.38,1.79c0.51,3.49,0.92,7.01,1.36,10.5
	L292.54,473.66z"/>
<path class="st1" d="M296.25,336.72c0,6.91-0.02,13.8,0,20.71c0,2.38-0.36,4.49-3.25,4.58c-3.05,0.1-3.71-2.11-3.71-4.58
	c-0.02-13.7-0.02-27.4-0.02-41.1c0-2.06,0.56-3.88,2.79-4.58c1.6-0.51,2.64,0.39,3.61,1.5c0.82,0.95,0.53,2.04,0.56,3.08
	c0,6.79,0,13.6,0,20.39H296.25z"/>
<path class="st1" d="M292.18,395.4c-2.23-0.05-4.41-2.3-4.12-4.51c0.32-2.42,1.82-3.9,4.29-4.05c2.16-0.12,4.39,2.25,4.36,4.39
	c-0.02,2.23-2.21,4.22-4.56,4.17H292.18z"/>
</svg>
