<?xml version="1.0" encoding="utf-8"?>
<!-- Generator: Adobe Illustrator 27.6.1, SVG Export Plug-In . SVG Version: 6.00 Build 0)  -->
<svg version="1.1" id="Capa_1" xmlns="http://www.w3.org/2000/svg" xmlns:xlink="http://www.w3.org/1999/xlink" x="0px" y="0px"
	 viewBox="0 0 595.28 841.89" style="enable-background:new 0 0 595.28 841.89;" xml:space="preserve">
<style type="text/css">
	.st0{fill:#EDE7DF;}
	.st1{fill:#77655C;}
</style>
<path class="st0" d="M301.89,502c40.87,0,73.99-33.53,73.99-74.89c0-41.36-33.12-74.89-73.99-74.89
	c-40.86,0-73.98,33.53-73.98,74.89C227.91,468.47,261.03,502,301.89,502z"/>
<path class="st1" d="M311.05,400.95c3.05-0.18,7.68,0.21,9.02-1.55c1.7-2.25,0.88-12.5,0.88-12.5c-1.95,0-8.79-0.16-11.99-0.13
	c-12.46,0.13-18.33,7.64-18.33,16.96c0,2.97,0,11.88-0.15,13.71h-11.48v14.96c4.35,0,8.45,0.05,12.6,0.05c0.09,2.51,0,35.65,0,36.64
	h14.68c0,0-0.09-35.18,0-36.64c2.1-0.11,9.78,0,10.76,0c0-1.98,1.67-10.9,1.96-14.86c-2.25,0-13.5,0.4-14.68,0
	c-0.99-0.34-0.77-11.93,0-14.86C304.82,400.81,309.03,401.07,311.05,400.95z"/>
</svg>
