<?xml version="1.0" encoding="utf-8"?>
<!-- Generator: Adobe Illustrator 27.6.1, SVG Export Plug-In . SVG Version: 6.00 Build 0)  -->
<svg version="1.1" id="Capa_1" xmlns="http://www.w3.org/2000/svg" xmlns:xlink="http://www.w3.org/1999/xlink" x="0px" y="0px"
	 viewBox="0 0 595.28 841.89" style="enable-background:new 0 0 595.28 841.89;" xml:space="preserve">
<style type="text/css">
	.st0{fill:#77655C;}
	.st1{fill:none;stroke:#77655C;stroke-width:24;stroke-miterlimit:10;}
</style>
<g>
	<path class="st0" d="M460.09,524.93c0.4-0.42,0.8-0.85,1.2-1.27C460.7,523.91,459.71,523.77,460.09,524.93z"/>
	<path class="st0" d="M160.37,462.93C160.16,463.15,160.27,463.04,160.37,462.93C160.02,462.63,160.04,462.94,160.37,462.93z"/>
	<path class="st0" d="M157.91,451.49C157.71,451.7,157.81,451.59,157.91,451.49C157.56,451.23,157.57,451.5,157.91,451.49z"/>
	<path class="st0" d="M157.19,448.89C157.4,448.99,157.29,448.94,157.19,448.89C157.15,449.3,157.23,449.41,157.19,448.89z"/>
	<path class="st0" d="M341.88,391.81c-7.57-19.58-36.95-10.63-33.97,7.95c9.16,37.46-21.39,118.57,18.01,134.99
		C361.48,523.71,337.9,425.59,341.88,391.81z"/>
	<path class="st0" d="M337.04,313.21c-19.62-12.09-43.22,11.95-30.25,31.07C326.95,373.89,367.34,332.41,337.04,313.21z"/>
	<circle class="st1" cx="325.54" cy="420.94" r="185.93"/>
</g>
</svg>
