<?xml version="1.0" encoding="utf-8"?>
<!-- Generator: Adobe Illustrator 27.6.1, SVG Export Plug-In . SVG Version: 6.00 Build 0)  -->
<svg version="1.1" id="Capa_1" xmlns="http://www.w3.org/2000/svg" xmlns:xlink="http://www.w3.org/1999/xlink" x="0px" y="0px"
	 viewBox="0 0 595.28 841.89" style="enable-background:new 0 0 595.28 841.89;" xml:space="preserve">
<style type="text/css">
	.st0{fill:#EDE7DF;}
	.st1{fill:none;stroke:#77655C;stroke-width:5;stroke-miterlimit:10;}
	.st2{fill:#77655C;}
</style>
<path class="st0" d="M291.16,467.35c31.25,0,56.58-25.64,56.58-57.27c0-31.63-25.33-57.27-56.58-57.27s-56.58,25.64-56.58,57.27
	C234.58,441.71,259.91,467.35,291.16,467.35z"/>
<path class="st0" d="M269.31,380.84c0,0.15-0.02,0.26-0.2,0.12C269.17,380.92,269.24,380.88,269.31,380.84z"/>
<path class="st0" d="M264.84,383.93c0.15-0.14,0.31-0.28,0.47-0.41c0.11,0.43-0.18,0.74-0.73,0.76c0-0.02,0-0.04,0.01-0.06
	C264.67,384.13,264.76,384.03,264.84,383.93L264.84,383.93z"/>
<path class="st0" d="M306.81,440.91c0.04-0.06,0.08-0.13,0.11-0.19c0.05,0.04,0.11,0.08,0.15,0.12
	C306.99,440.87,306.9,440.9,306.81,440.91L306.81,440.91z"/>
<path class="st0" d="M274.91,379.55c0,0-0.07,0.08-0.11,0.11l-0.09-0.11C274.77,379.55,274.84,379.55,274.91,379.55z"/>
<path class="st0" d="M261.66,388.65c0.03,0.05,0.07,0.09,0.11,0.14c-0.06,0.02-0.11,0.05-0.17,0.07
	C261.62,388.8,261.63,388.72,261.66,388.65L261.66,388.65z"/>
<path class="st0" d="M320.03,418.73c-0.23,0-0.43-0.09-0.41-0.33c0.02-0.28,0.07-0.58,0.4-0.68
	C320.02,418.06,320.02,418.39,320.03,418.73L320.03,418.73z"/>
<path class="st0" d="M260.49,424.13c0.09,0.11,0.26,0.21,0.26,0.32c0.02,0.43-0.02,0.85-0.06,1.28c0,0.08-0.14,0.15-0.2,0.23
	c-0.02-0.41-0.03-0.81-0.05-1.22C260.45,424.54,260.47,424.34,260.49,424.13L260.49,424.13z"/>
<path class="st0" d="M260.49,422.78c0.23,0.02,0.32,0.16,0.29,0.37c-0.04,0.26-0.02,0.54-0.29,0.71c-0.02-0.18-0.02-0.36-0.04-0.54
	C260.46,423.14,260.47,422.96,260.49,422.78L260.49,422.78z"/>
<path class="st0" d="M260.49,421.9c0.07,0.07,0.23,0.17,0.21,0.22c-0.03,0.14-0.14,0.26-0.21,0.39
	C260.49,422.31,260.49,422.1,260.49,421.9z"/>
<path class="st0" d="M260.48,412.73c0.29,0.02,0.35,0.26,0.28,0.45c-0.07,0.22-0.05,0.39,0,0.59c0.1,0.39,0,0.58-0.28,0.63
	c-0.02-0.07-0.02-0.14-0.04-0.2C260.45,413.71,260.45,413.22,260.48,412.73L260.48,412.73z"/>
<path class="st0" d="M260.49,414.75c0.3,0.11,0.13,0.4,0.21,0.59c0.02,0.03-0.14,0.15-0.21,0.22
	C260.49,415.3,260.49,415.02,260.49,414.75z"/>
<path class="st0" d="M260.49,416.64c0.44,0.07,0.27,0.41,0.29,0.67c0.02,0.19-0.03,0.37-0.29,0.35c-0.02-0.14-0.02-0.27-0.04-0.41
	C260.46,417.04,260.47,416.84,260.49,416.64z"/>
<path class="st0" d="M260.49,409.09c0.32,0.06,0.28,0.31,0.28,0.54c0,0.38,0,0.76,0,1.15c0,0.24,0.09,0.54-0.28,0.61
	c-0.02-0.05-0.02-0.09-0.04-0.14c0-0.18,0-0.36,0-0.54c0-0.36,0-0.72,0-1.08C260.46,409.45,260.48,409.27,260.49,409.09z"/>
<path class="st0" d="M260.49,407.61c0.08,0.05,0.22,0.1,0.23,0.15c0,0.33-0.02,0.67-0.05,1c0,0.02-0.11,0.04-0.17,0.07
	c-0.02-0.23-0.02-0.45-0.04-0.67C260.47,407.96,260.48,407.79,260.49,407.61L260.49,407.61z"/>
<path class="st0" d="M260.48,415.83c0.09,0.13,0.23,0.26,0.26,0.41c0.02,0.06-0.17,0.18-0.26,0.28
	C260.48,416.29,260.48,416.07,260.48,415.83L260.48,415.83z"/>
<path class="st0" d="M260.48,419.41c0.27,0.2,0.31,0.5,0.3,0.81c0,0.19-0.04,0.38-0.29,0.4c-0.02-0.11-0.02-0.23-0.04-0.34
	L260.48,419.41L260.48,419.41z"/>
<path class="st0" d="M260.48,404.3c0.27,0.19,0.32,0.47,0.29,0.76c-0.02,0.19,0,0.43-0.29,0.45c-0.02-0.11-0.02-0.23-0.04-0.34
	C260.45,404.88,260.46,404.59,260.48,404.3L260.48,404.3z"/>
<path class="st0" d="M260.49,406.79c0.07,0.06,0.15,0.12,0.22,0.19c-0.07,0.07-0.15,0.15-0.23,0.22
	C260.48,407.06,260.48,406.93,260.49,406.79L260.49,406.79z"/>
<path class="st0" d="M260.49,405.79c0.07,0.07,0.15,0.15,0.23,0.22c-0.07,0.06-0.15,0.13-0.22,0.19
	C260.49,406.06,260.49,405.93,260.49,405.79L260.49,405.79z"/>
<path class="st0" d="M260.49,420.89c0.07,0.07,0.15,0.12,0.22,0.19c-0.07,0.05-0.15,0.11-0.21,0.15
	C260.49,421.12,260.49,421.01,260.49,420.89L260.49,420.89z"/>
<path class="st0" d="M260.48,411.85c0.05,0.04,0.11,0.08,0.15,0.11c-0.05,0.03-0.1,0.06-0.15,0.09
	C260.48,411.99,260.48,411.92,260.48,411.85z"/>
<path class="st0" d="M260.52,393.38c0,0,0.07,0.06,0.11,0.09c-0.04,0.04-0.07,0.08-0.11,0.11
	C260.52,393.52,260.52,393.44,260.52,393.38z"/>
<path class="st0" d="M265.05,397.49c0,1.79,0.02,3.57,0.02,5.35c0,6.9,0,13.79,0,20.68c0,0.09-0.01,0.18-0.02,0.27
	c-0.23,0.03-0.33-0.09-0.33-0.31c0-0.1,0-0.2,0-0.3c0-8.14,0-16.28,0-24.42c0-0.25-0.03-0.51-0.06-0.76
	C264.61,397.67,264.73,397.51,265.05,397.49z"/>
<path class="st0" d="M311.6,432.61c0.3-0.28,0.59-0.58,0.88-0.86c0,0.44-0.61,1.05-1,1.01C311.52,432.7,311.56,432.65,311.6,432.61
	L311.6,432.61z"/>
<path class="st0" d="M314.34,428.65c0.14-0.34,0.27-0.67,0.41-1.02c0.04,0.06,0.13,0.15,0.11,0.19c-0.13,0.34-0.16,0.75-0.53,0.95
	C314.34,428.74,314.34,428.69,314.34,428.65z"/>
<path class="st0" d="M265.3,383.53c0.2-0.18,0.4-0.36,0.61-0.54C265.83,383.52,265.73,383.6,265.3,383.53z"/>
<path class="st0" d="M315.42,423.59v-1.08c0,0,0.11,0.07,0.11,0.1C315.48,422.93,315.69,423.29,315.42,423.59L315.42,423.59z"/>
<path class="st0" d="M261.17,430.47c-0.06-0.2-0.12-0.41-0.18-0.61C261.31,429.98,261.38,430.23,261.17,430.47z"/>
<path class="st0" d="M261.36,431.08c-0.04-0.05-0.07-0.1-0.11-0.14c0-0.04,0-0.09,0.01-0.13
	C261.47,430.83,261.5,430.92,261.36,431.08L261.36,431.08z"/>
<path class="st0" d="M313.61,430.2c0.04-0.07,0.08-0.14,0.12-0.21C313.92,430.19,313.75,430.19,313.61,430.2z"/>
<path class="st0" d="M313.87,429.72c0.03-0.07,0.06-0.14,0.09-0.21c0.03,0.05,0.06,0.09,0.1,0.14
	C313.99,429.67,313.93,429.7,313.87,429.72z"/>
<path class="st0" d="M309.41,434.39c0.06-0.03,0.13-0.06,0.19-0.1c-0.03,0.07-0.06,0.13-0.1,0.2
	C309.48,434.46,309.45,434.42,309.41,434.39z"/>
<path class="st0" d="M263.49,385.61c0.05-0.07,0.1-0.13,0.15-0.2C263.59,385.48,263.54,385.54,263.49,385.61z"/>
<path class="st0" d="M305.41,435.98l0.13-0.04C305.49,435.96,305.45,435.97,305.41,435.98z"/>
<path class="st0" d="M265.91,382.99c0,0,0.05-0.04,0.06-0.05C265.95,382.95,265.93,382.97,265.91,382.99z"/>
<path class="st0" d="M270.16,380.48c0,0,0.05-0.03,0.06-0.05C270.21,380.45,270.19,380.47,270.16,380.48z"/>
<path class="st0" d="M298.56,397.41c0,0-0.04,0.07-0.06,0.11c-0.02-0.07-0.05-0.15-0.08-0.22
	C298.47,397.35,298.51,397.38,298.56,397.41L298.56,397.41z"/>
<path class="st0" d="M295.69,424.66c-0.32,0.12-0.66,0.24-0.99,0.36c-0.19-0.3-0.11-0.57,0.21-0.8c0.06-0.04,0.1-0.09,0.17-0.15
	C295.28,424.27,295.49,424.47,295.69,424.66z"/>
<path class="st0" d="M301.43,410.98c0-0.38,0-0.76,0-1.15c0.06,0.04,0.16,0.08,0.17,0.13c0.02,0.29,0.02,0.59,0,0.89
	C301.6,410.9,301.49,410.95,301.43,410.98L301.43,410.98z"/>
<path class="st0" d="M287.35,399.03c-0.09,0.03-0.18,0.06-0.27,0.09c-0.04,0-0.09,0-0.12,0
	C287.09,398.8,287.16,398.78,287.35,399.03L287.35,399.03z"/>
<path class="st0" d="M282.18,402.15c-0.07,0.06-0.15,0.13-0.21,0.19c-0.07-0.06-0.15-0.11-0.23-0.17c0.02-0.02,0.04-0.06,0.06-0.08
	C281.93,402.12,282.05,402.13,282.18,402.15L282.18,402.15z"/>
<path class="st0" d="M301.3,408.28c-0.02-0.09-0.04-0.18-0.06-0.27c0.08,0.06,0.16,0.11,0.24,0.17
	C301.42,408.22,301.36,408.25,301.3,408.28L301.3,408.28z"/>
<path class="st0" d="M294.02,425.2c-0.09,0.02-0.18,0.05-0.27,0.07c0.04-0.07,0.07-0.13,0.11-0.19
	C293.92,425.12,293.98,425.16,294.02,425.2z"/>
<path class="st0" d="M301.03,413.54c0.02-0.06,0.03-0.14,0.04-0.2c0.04,0.02,0.08,0.06,0.12,0.08
	C301.14,413.46,301.09,413.5,301.03,413.54z"/>
<path class="st0" d="M275.44,406.49c0.02-0.1,0.05-0.19,0.08-0.28C275.55,406.32,275.81,406.49,275.44,406.49z"/>
<path class="st0" d="M276.31,404.03c0.03-0.07,0.06-0.14,0.11-0.21C276.57,403.98,276.48,404.03,276.31,404.03z"/>
<path class="st0" d="M278.11,401l0.19-0.21C278.23,400.86,278.17,400.92,278.11,401z"/>
<path class="st0" d="M301.36,411.45c0-0.06,0-0.14,0-0.2c0.04,0.03,0.07,0.06,0.11,0.09C301.44,411.38,301.4,411.41,301.36,411.45z"
	/>
<path class="st0" d="M295.53,424.01c0,0-0.03,0.02-0.05,0.02c-0.02,0-0.02-0.03-0.02-0.05c0.02,0,0.04-0.02,0.06-0.02
	C295.52,423.96,295.52,423.99,295.53,424.01z"/>
<path class="st0" d="M288.36,398.77c-0.05,0.02-0.09,0.03-0.14,0.06C288.27,398.81,288.31,398.8,288.36,398.77z"/>
<path class="st0" d="M295.49,400.06c0,0-0.05-0.05-0.07-0.08c0.05,0.02,0.09,0.04,0.14,0.06
	C295.54,400.04,295.51,400.05,295.49,400.06z"/>
<path class="st0" d="M295.88,400.23c0,0-0.05-0.03-0.08-0.05C295.83,400.2,295.85,400.21,295.88,400.23z"/>
<path class="st1" d="M305.22,437.58h-30.27c-6.6,0-12-5.4-12-12v-31.01c0-6.6,5.4-12,12-12h30.27c6.6,0,12,5.4,12,12v31.01
	C317.22,432.18,311.82,437.58,305.22,437.58z"/>
<circle class="st1" cx="290.08" cy="410.64" r="12.87"/>
<circle class="st2" cx="306.03" cy="393.58" r="4.37"/>
</svg>
