<?xml version="1.0" encoding="utf-8"?>
<!-- Generator: Adobe Illustrator 27.6.1, SVG Export Plug-In . SVG Version: 6.00 Build 0)  -->
<svg version="1.1" id="Capa_1" xmlns="http://www.w3.org/2000/svg" xmlns:xlink="http://www.w3.org/1999/xlink" x="0px" y="0px"
	 viewBox="0 0 595.28 841.89" style="enable-background:new 0 0 595.28 841.89;" xml:space="preserve">
<style type="text/css">
	.st0{fill:#EDE7DF;stroke:#EDE7DF;stroke-width:2;stroke-linejoin:round;}
</style>
<path class="st0" d="M360.41,418.06c-0.04-4.29-0.98-8.5-2.46-12.46c-0.71-1.95-1.48-3.94-2.54-5.85v0l-0.01-0.01
	c-0.79-1.38-1.92-3.12-3.78-3.95l-0.01,0c-1.37-0.6-2.95-0.51-4.26,0.06c-1.31,0.57-2.47,1.67-2.84,3.23
	c-0.61,2.38-0.32,4.84-0.05,7.03c0.05,0.42,0.1,0.83,0.14,1.23l0,0.02c0.02,0.16,0.04,0.33,0.06,0.49c0.51,3.93,1,7.73,0.83,11.49
	v0.01c-0.15,3.82-1.07,7.59-3.15,10.67c-2.17,3.11-5.05,5.8-8.29,7.73c-5.46,3.24-11.11,3.81-15.86,2.13
	c-4.74-1.68-8.71-5.65-10.73-11.77c0-0.01-0.01-0.02-0.01-0.03c-0.42-1.16-0.79-2.64-1.12-3.94c-0.03-0.11-0.05-0.21-0.08-0.32l0,0
	c-0.67-2.61-1.5-5.17-2.68-7.68c-1.89-4.03-5.18-8.3-10.03-9.53c-4.77-1.27-9.5,0.44-13.38,2.35c-0.01,0-0.02,0.01-0.02,0.01
	c-0.01,0.01-0.02,0.01-0.03,0.02c-2.88,1.64-6.47,1.06-9.33-0.9l-0.01-0.01c-3.03-2.01-5.35-5.13-7.05-8.51v0l0-0.01
	c-0.88-1.72-1.54-3.56-2.21-5.47l0,0l0-0.01c-1.15-3.2-3.45-7.1-7.61-7.81l0,0l-0.01,0c-3.94-0.64-7.66,1.54-10.19,3.95
	c-0.04,0.04-0.08,0.08-0.11,0.13c-6.51,8.68-9.74,19.72-8.96,30.55h0l0,0.01c1.26,15.62,9.35,30.77,21.01,41.99
	c11.66,11.22,26.99,18.57,42.81,18.47c35.05,0.03,62.18-28.24,61.97-63.24C360.41,418.13,360.41,418.1,360.41,418.06z
	 M352.91,401.21c0.99,1.65,1.77,3.47,2.52,5.36l0,0c0.76,1.88,1.42,3.72,1.83,5.65l0,0.02c0.45,1.94,0.82,3.86,0.89,5.77
	c0,0.02,0,0.04,0,0.06c-0.01,15.87-6.17,31.63-17.31,42.87l0,0c-14.14,14.42-36.1,20.73-55.58,15.45h0
	c-24.06-6.47-44.96-30.62-46.81-55.72c-0.63-9.91,2.34-19.87,8.34-27.74c0.96-0.81,2.42-1.79,3.94-2.27c1.55-0.49,3-0.43,4.16,0.62
	l0.02,0.02c1.34,1.15,2.16,3,2.83,4.95c0.59,1.79,1.28,3.57,2.12,5.28c1.95,3.95,4.66,7.69,8.45,10.27
	c3.37,2.35,8.08,3.54,12.22,1.96c0.02-0.01,0.04-0.01,0.05-0.02c0.24-0.11,0.49-0.22,0.73-0.33c1.73-0.79,3.46-1.57,5.22-2.08
	c1.99-0.58,3.93-0.78,5.83-0.25v0l0.01,0c3.22,0.86,5.52,3.79,7.1,7.07l0,0l0,0.01c1.31,2.66,2.09,5.64,2.89,8.66
	c0.11,0.4,0.21,0.81,0.32,1.21c0,0.01,0.01,0.02,0.01,0.04c0.81,2.63,1.9,5.2,3.44,7.57c6.81,10.59,19.95,11.92,30.02,5.65
	c2.82-1.71,5.31-3.92,7.44-6.39c7.22-8.03,5.87-18.73,4.36-27.96c-0.06-0.51-0.13-1.03-0.21-1.57c-0.13-0.9-0.26-1.83-0.32-2.8
	c-0.09-1.53,0.07-2.71,0.56-3.42c0.12-0.13,0.35-0.29,0.67-0.42c0.33-0.14,0.68-0.22,0.96-0.25c0.59-0.04,1.15,0.21,1.73,0.73
	C351.94,399.73,352.45,400.47,352.91,401.21z"/>
<path class="st0" d="M259.73,397.14c-0.35,0.41-0.31,1.03,0.1,1.39l0.19,0.17c0.41,0.37,1.04,0.33,1.41-0.07
	c6.42-7.06,15.16-11.89,24.51-13.52c0.01,0,0.02,0,0.03-0.01c13.72-2.78,28.84,3.87,35.18,16.5l0.01,0.02
	c2.39,4.56,3.62,9.7,3.77,14.88c0,0.01,0,0.03,0,0.04c0,0.04,0,0.11-0.01,0.26c0,0.02,0,0.05-0.01,0.08
	c-0.01,0.1-0.02,0.23-0.03,0.35c-0.88,8.55-3.16,17.19-8.82,23.61c-0.34,0.39-0.33,0.96,0.02,1.34l0.17,0.18
	c0.36,0.39,0.97,0.43,1.37,0.09c0.99-0.83,1.92-1.73,2.77-2.71l0-0.01c2.54-2.95,4.43-6.41,5.81-9.98l0,0
	c1.56-4.03,2.59-8.28,3.07-12.57c0-0.02,0-0.04,0.01-0.07c0.41-8.75-2.93-17.56-8.79-23.99
	C303.49,374.33,275.01,379.07,259.73,397.14z"/>
<path class="st0" d="M345.78,375.45L345.78,375.45c0.2-9.51-8.92-16.85-18.18-13.01c-8.97,3.71-11.18,15.94-4.18,22.6l0,0
	C332.12,393.28,345.52,387.14,345.78,375.45z M337.1,366.62c3.57,1.34,6.34,4.48,6.43,8.82c0.1,5.78-4.88,10.32-10.54,10.12l-0.01,0
	c-8.7-0.17-13.03-10.84-6.73-16.86l0,0l0,0C329.25,365.79,333.52,365.27,337.1,366.62z"/>
<path class="st0" d="M237.41,412.64c-0.23-0.38-0.69-0.56-1.12-0.44c-0.09,0.02-0.17,0.06-0.24,0.1l-0.12,0.05
	c-0.25,0.11-0.45,0.32-0.54,0.58c-0.09,0.26-0.07,0.55,0.06,0.79c0.77,1.48,1.87,2.69,2.88,3.8c0.16,0.18,0.32,0.36,0.48,0.53
	c0.01,0.01,0.02,0.02,0.03,0.03c5.97,6.16,13.18,12.3,21.55,15.24l0.02,0.01c2.4,0.79,5.19,1.22,7.84,0.62l0,0
	c2.92-0.66,5.66-2.02,8.15-3.27c0.11-0.05,0.22-0.11,0.33-0.16c2.2-1.07,4.14-2.02,6.27-2.04v0l0.01,0
	c1.27-0.03,2.49,0.39,3.67,1.08c3.41,2.22,5.77,5.69,8.1,9.36c3.68,6.14,8.42,11.86,14.54,15.84c9.78,6.49,21.89,6.99,31.69,0.09
	c3.78-2.58,6.85-6.1,9.68-9.47l0.01-0.01c3.64-4.48,6.92-9.56,8.58-15.28c1.19-3.97,1.36-8.15,1.12-12.11
	c-0.03-0.53-0.47-0.94-1-0.94h-0.25c-0.53,0-0.97,0.42-1,0.95c-0.17,3.43-0.48,6.77-1.53,9.91l-0.01,0.02
	c-0.98,3.12-2.54,6.11-4.4,8.85v0c-2.35,3.46-5.12,6.66-8.12,9.63c-0.01,0.01-0.01,0.01-0.02,0.02c-2.81,2.94-6.09,5.42-9.78,6.97
	l-0.02,0.01c-9.09,4-19.2,1.34-26.69-5.07l0,0l-0.01-0.01c-3.8-3.18-6.95-7.18-9.62-11.44l-0.01-0.02
	c-2.45-3.72-5.32-7.83-9.46-10.37c-0.02-0.01-0.04-0.03-0.07-0.04c-0.14-0.07-0.37-0.19-0.58-0.3c-0.12-0.07-0.24-0.13-0.34-0.18
	c-0.03-0.01-0.05-0.03-0.08-0.04l-0.65-0.27l0,0c-2.2-0.9-4.73-0.86-6.87-0.19c-2.1,0.65-4.05,1.67-5.91,2.64
	c-0.43,0.23-0.86,0.45-1.28,0.66c-2.27,1.15-4.45,2.1-6.86,2.31c-3.6,0.09-7.56-1.44-11.39-3.67c-3.82-2.22-7.4-5.08-10.24-7.51
	c-0.3-0.27-0.6-0.55-0.9-0.82C241.1,417.08,238.92,415.09,237.41,412.64z"/>
<path class="st0" d="M248.52,453.65c0.14,0.53,0.69,0.85,1.22,0.71l0.24-0.06c0.53-0.14,0.85-0.67,0.72-1.2
	c-0.46-1.93-0.09-4.01,0.95-5.71l0,0c2.12-3.48,6.3-5.49,10.41-5.61l0,0l0.01,0c4.08-0.17,8.04,1.82,10.63,5.02
	c0.01,0.01,0.01,0.02,0.02,0.03c5.75,6.65,12.66,12.19,20.05,16.79c14.55,9.23,33.81,13.63,48.24,0.88
	c0.39-0.34,0.45-0.93,0.14-1.35l-0.15-0.2c-0.32-0.43-0.91-0.53-1.35-0.24c-7.34,4.86-16.24,6.54-24.8,4.85l-0.01,0
	c-14.81-2.75-29.24-11.95-39.53-23c-3.24-3.82-8.29-6.2-13.38-5.8c-3.62,0.15-7.47,1.8-10.17,4.4
	C249.03,445.8,247.4,449.49,248.52,453.65z"/>
</svg>
