<?xml version="1.0" encoding="utf-8"?>
<!-- Generator: Adobe Illustrator 27.6.1, SVG Export Plug-In . SVG Version: 6.00 Build 0)  -->
<svg version="1.1" id="Capa_1" xmlns="http://www.w3.org/2000/svg" xmlns:xlink="http://www.w3.org/1999/xlink" x="0px" y="0px"
	 viewBox="0 0 595.28 841.89" style="enable-background:new 0 0 595.28 841.89;" xml:space="preserve">
<style type="text/css">
	.st0{fill:#76655B;}
</style>
<g>
	<path class="st0" d="M282.81,329.79c-55.33,0-110.66,0.05-165.99-0.1c-4.47-0.01-5.59,1.3-5.58,5.63
		c0.12,69.49,0.09,138.99,0.06,208.48c-0.01,14.88,10.1,26.68,27.62,26.59c60.66-0.31,121.32-0.14,181.99-0.07
		c2.31,0,5.89-1.43,6.65,1.48c0.94,3.59,0.68,7.65,0.11,11.38c-0.25,1.64-2.95,0.81-4.53,0.81c-31.16,0.05-62.33,0.04-93.49,0.05
		c-30.66,0-61.34-0.51-91.99,0.19c-19.94,0.46-40.19-15.66-40.16-40c0.09-88.83,0.01-177.65-0.06-266.48
		c-0.02-25.87,21.68-40.91,40.17-39.9c11.46,0.63,23-0.11,34.49,0.21c4.34,0.12,5.44-1.33,5.11-5.36
		c-0.62-7.5,0.64-14.55,5.69-20.58c6.02-7.19,16.37-10.45,25.25-7.75c9.34,2.84,16.13,11.07,17.04,20.64
		c0.03,0.33,0.1,0.66,0.15,0.99c0.61,3.86-1.74,9.16,1.56,11.28c2.87,1.84,7.73,0.68,11.7,0.68c33.83,0.03,67.66-0.05,101.49,0.12
		c3.94,0.02,5.26-1,5.06-4.98c-0.2-4.1-0.49-8.24,0.84-12.36c3.89-12.07,14.57-18.67,27.55-16.73c11,1.65,19.49,11.95,19.52,23.68
		c0.02,10.29,0.02,10.29,10.56,10.29c8.67,0,17.33-0.03,26,0.01c21.39,0.1,38.46,16.91,38.49,38.22
		c0.08,54.83-0.05,109.66,0.11,164.49c0.01,4.35-1.67,4.84-5.19,4.77c-8.73-0.17-8.69-0.06-8.69-8.78c0.02-34-0.09-68,0.11-101.99
		c0.03-4.61-1.9-4.99-5.63-4.99c-55.33,0.09-110.66,0.06-165.99,0.06C282.81,329.76,282.81,329.78,282.81,329.79z M282.5,315.97
		c0,0.01,0,0.01,0,0.02c55.48,0,110.95-0.04,166.43,0.09c4.05,0.01,5.5-0.91,5.41-5.15c-0.25-11.66,0.08-23.32-0.09-34.98
		c-0.2-13.55-10.66-23.88-24.19-24.04c-9.49-0.11-18.99-0.02-28.49-0.05c-8.55-0.03-8.55-0.05-8.51,8.22c0.01,1.5,0,3-0.01,4.5
		c-0.12,12.56-9.33,23.12-21.28,24.38c-12.42,1.31-24.27-7.46-26.42-19.99c-0.67-3.89-0.53-8-0.22-11.96
		c0.32-4.12-1.05-5.29-5.21-5.27c-30.32,0.18-60.64,0.1-90.96,0.11c-6.66,0-13.33,0.09-19.99-0.06c-2.59-0.06-3.6,0.8-3.54,3.41
		c0.09,3.83,0.1,7.67-0.17,11.48c-0.82,11.76-10.41,21.49-21.8,22.3c-12,0.85-22.66-7.05-25.51-18.67
		c-1.13-4.63-0.85-9.28-0.73-13.91c0.08-3.35-0.75-4.67-4.39-4.61c-12.49,0.22-24.99,0-37.48,0.14
		c-11.76,0.13-21.81,8.92-23.37,20.58c-1.63,12.26-0.45,24.61-0.64,36.92c-0.1,6.5,0.11,6.53,6.73,6.53
		C172.88,315.97,227.69,315.97,282.5,315.97z M191.04,246.27c-0.01,0-0.02,0-0.03,0c0,5.66-0.06,11.33,0.02,16.99
		c0.1,7.47,4.09,11.86,10.57,11.79c6.09-0.06,10.07-4.55,10.1-11.79c0.05-11.33-0.01-22.66-0.15-33.98
		c-0.09-7.34-3.94-11.88-9.91-12.05c-6.05-0.17-10.49,4.82-10.59,12.06C190.98,234.95,191.04,240.61,191.04,246.27z M379.13,246.42
		c-0.01,0-0.02,0-0.03,0c0-6.5,0.15-13-0.04-19.49c-0.16-5.44-4.89-9.8-10.09-9.73c-5.27,0.07-9.83,4.41-9.89,9.9
		c-0.14,12.66-0.19,25.32-0.04,37.98c0.07,6.19,4.23,10.03,10.1,9.97c5.83-0.06,9.85-4.04,9.97-10.14
		C379.22,258.75,379.13,252.59,379.13,246.42z"/>
	<path class="st0" d="M534.48,567.36c0.17,45.69-37.47,83.56-83.59,83.07c-47.21-0.5-83.49-37.79-83-84.73
		c0.48-45.58,38.23-82.25,83.6-82.09C496.97,483.77,535.12,521.59,534.48,567.36z M451.23,636.78c38.3-0.66,68.62-29.87,69.55-68.59
		c0.93-38.91-30.61-70.65-69.72-70.89c-37.84-0.23-69.23,30.93-69.62,69.11C381.04,605.08,412.05,636.34,451.23,636.78z"/>
	<path class="st0" d="M206.07,447.09c0,7-0.02,14,0.01,21c0.02,4.4-2.17,7.14-6.51,7.2c-14.66,0.2-29.32,0.27-43.98,0.06
		c-4.27-0.06-6.49-3.08-6.51-7.36c-0.05-14-0.07-28,0.01-41.99c0.03-4.82,2.75-7.71,7.82-7.77c13.83-0.16,27.66-0.17,41.48,0.04
		c5.34,0.08,7.64,2.92,7.67,8.32C206.11,433.42,206.08,440.26,206.07,447.09z M192.23,447.56c0-4.68-0.09-8.35,0.03-12.01
		c0.08-2.6-1.03-3.55-3.57-3.49c-4.66,0.1-9.33,0.06-13.99,0c-11.65-0.14-11.65-0.16-11.68,11.21c0,1.5,0.01,3,0,4.5
		c-0.11,13.97-0.11,14.05,14,13.93c4.79-0.04,10.93,2.1,14.04-0.78C194.46,457.77,191.7,451.45,192.23,447.56z"/>
	<path class="st0" d="M276.19,447.13c0,6.66,0.05,13.33-0.02,19.99c-0.06,6.04-2.14,8.26-8.01,8.32
		c-13.49,0.13-26.99,0.19-40.48,0.15c-5.8-0.02-8.55-2.8-8.58-8.63c-0.07-13.49-0.04-26.98,0.04-40.47
		c0.03-5.27,2.56-8.14,7.93-8.22c13.82-0.18,27.65-0.16,41.48,0.07c5.43,0.09,7.54,2.66,7.63,8.32
		C276.29,433.47,276.21,440.3,276.19,447.13z M233.02,446.98c0,3.49,0.25,7.01-0.07,10.48c-0.32,3.51,1.34,4.32,4.33,4.3
		c6.99-0.05,13.98-0.08,20.97,0.05c2.94,0.06,4.2-0.96,4.17-4.03c-0.05-7.15,0.07-14.31,0.26-21.46c0.09-3.3-1.42-4.34-4.54-4.29
		c-6.49,0.11-12.99,0.23-19.47-0.11c-4.7-0.24-6.21,1.59-5.73,6.07C233.27,440.97,233.01,443.99,233.02,446.98z"/>
	<path class="st0" d="M346.41,446.71c0,6.99,0.09,13.99-0.03,20.98c-0.09,5.23-2.38,7.76-7.62,7.82
		c-13.82,0.17-27.65,0.18-41.47,0.03c-5.18-0.06-8.02-3.03-8.06-8.19c-0.1-13.65-0.1-27.31,0.04-40.96c0.06-5.31,2.75-8.1,8.06-8.17
		c13.65-0.17,27.31-0.18,40.97,0.02c5.76,0.08,7.95,2.7,7.99,8.49c0.05,6.66,0.01,13.32,0.01,19.98
		C346.34,446.71,346.38,446.71,346.41,446.71z M303.08,446.44c0,3.65,0.13,7.32-0.04,10.96c-0.14,2.91,0.88,4.34,3.9,4.33
		c7.48-0.04,14.95,0,22.43,0.03c2.15,0.01,3.52-0.72,3.52-3.12c0-7.81,0-15.61,0.06-23.42c0.02-2.76-1.55-3.22-3.87-3.19
		c-7.31,0.07-14.62,0.12-21.93-0.03c-2.95-0.06-4.29,0.85-4.11,3.97C303.23,439.45,303.08,442.95,303.08,446.44z"/>
	<path class="st0" d="M359.74,446.72c0-6.66-0.04-13.33,0.01-19.99c0.05-5.94,2.6-8.36,8.61-8.38c12.82-0.05,25.64-0.13,38.46-0.15
		c7.58-0.02,10.01,2.54,10.01,10.24c0,12.49,0.08,24.97,0.09,37.46c0,7.36-2.64,9.78-9.99,9.71c-12.83-0.13-25.66-0.1-38.49-0.18
		c-6.52-0.04-8.69-2.29-8.68-8.72c0.02-6.66,0-13.32,0-19.98C359.76,446.72,359.75,446.72,359.74,446.72z M387.67,461.76
		c3.83,0,7.66-0.06,11.49,0.02c2.7,0.06,3.9-0.97,3.86-3.81c-0.09-7.16-0.07-14.33,0.1-21.49c0.08-3.25-1.31-4.46-4.43-4.43
		c-6.83,0.08-13.67,0.2-20.49-0.07c-3.83-0.15-4.96,1.51-4.92,4.96c0.07,5.66-0.02,11.33-0.07,16.99c-0.07,7.81-0.08,7.81,7.94,7.82
		C383.34,461.76,385.5,461.76,387.67,461.76z"/>
	<path class="st0" d="M206.06,515.06c0,6.66,0.02,13.32-0.01,19.98c-0.02,5.73-2.06,8-7.63,8.03c-13.82,0.09-27.64,0.1-41.46,0.01
		c-5.45-0.04-7.85-2.53-7.88-8.03c-0.07-13.65-0.07-27.31,0-40.96c0.03-5.17,2.81-7.98,8.04-8.01c13.65-0.08,27.31-0.07,40.96,0.03
		c5.59,0.04,7.96,2.68,7.98,8.46c0.03,6.83,0.01,13.65,0.01,20.48C206.07,515.06,206.07,515.06,206.06,515.06z M192.31,515.48
		c0-4.39-0.13-8.23,0.05-12.05c0.12-2.6-0.78-3.57-3.4-3.5c-5.33,0.14-10.66,0.05-15.99,0.06c-9.93,0.02-9.93,0.02-9.95,9.71
		c0,1.67-0.15,3.34-0.03,4.99c0.34,4.75-1.99,10.87,1.07,13.9c2.87,2.84,8.92,0.9,13.56,0.9c4.63,0,10.57,2.06,13.54-0.72
		C194.4,525.74,191.72,519.64,192.31,515.48z"/>
	<path class="st0" d="M206.07,379.33c0,6.83,0.04,13.67-0.01,20.5c-0.04,5.09-2.46,7.9-7.48,7.95c-14,0.15-28,0.15-41.99,0.02
		c-4.81-0.04-7.47-3.05-7.49-8.06c-0.06-13.83,0-27.66-0.03-41.49c-0.01-4.67,2.39-7.42,6.87-7.49c14.33-0.21,28.66-0.24,42.99-0.05
		c5.11,0.07,7.1,2.53,7.15,7.62C206.13,365.33,206.08,372.33,206.07,379.33z M163.05,379.09c-0.02,0-0.05,0-0.07,0
		c0,3.33,0.25,6.68-0.07,9.97c-0.36,3.68,0.84,5.09,4.63,4.97c6.81-0.23,13.64-0.23,20.45-0.02c3.36,0.11,4.29-1.19,4.22-4.34
		c-0.15-6.98-0.2-13.97,0.08-20.95c0.15-3.69-1.51-4.58-4.71-4.52c-5.49,0.1-10.97,0.03-16.46,0.04c-8.11,0.02-8.11,0.02-8.08,7.86
		C163.06,374.44,163.05,376.77,163.05,379.09z"/>
	<path class="st0" d="M317.9,543.1c-6.83,0-13.65,0.05-20.47-0.02c-5.02-0.05-8.04-2.59-8.1-7.41c-0.16-13.98-0.17-27.97,0.01-41.95
		c0.06-4.98,2.99-7.61,7.98-7.64c13.65-0.08,27.3-0.09,40.95,0.02c5.72,0.04,8.2,2.56,8.22,8.3c0.05,13.65,0.01,27.29-0.13,40.94
		c-0.06,5.68-2.2,7.68-7.98,7.74C331.55,543.16,324.72,543.11,317.9,543.1z M332.92,514.99c0-3.32-0.2-6.66,0.05-9.96
		c0.29-3.76-0.77-5.39-4.92-5.17c-6.79,0.35-13.61,0.25-20.41,0.06c-3.33-0.1-4.8,0.77-4.67,4.4c0.24,6.96,0.21,13.94,0.04,20.91
		c-0.07,2.96,0.88,4.23,3.91,4.19c7.3-0.08,14.61-0.07,21.91,0.06c3.31,0.06,4.34-1.4,4.14-4.53
		C332.75,521.64,332.92,518.31,332.92,514.99z"/>
	<path class="st0" d="M276.15,514.99c0,6.99,0.09,13.98-0.03,20.97c-0.08,4.8-2.29,7.08-7.01,7.11
		c-14.14,0.09-28.29,0.08-42.43-0.01c-4.63-0.03-7.47-2.77-7.52-7.46c-0.13-13.98-0.12-27.96,0.01-41.94
		c0.04-4.56,2.99-7.54,7.54-7.57c13.98-0.11,27.96-0.1,41.94,0.05c5.08,0.06,7.42,2.63,7.51,7.89c0.12,6.99,0.03,13.98,0.03,20.97
		C276.17,514.99,276.16,514.99,276.15,514.99z M248.77,499.97c-4.35,0-8.02,0.19-11.65-0.05c-3.38-0.22-4.26,1.2-4.17,4.35
		c0.19,7.13,0.22,14.28,0.04,21.41c-0.08,2.89,1.06,3.77,3.69,3.76c7.47-0.02,14.94-0.01,22.4,0.14c2.58,0.05,3.61-0.92,3.53-3.48
		c-0.11-3.98,0.17-7.98-0.11-11.95c-0.32-4.59,2.3-10.54-0.91-13.38C258.54,498.06,252.68,500.3,248.77,499.97z"/>
	<path class="st0" d="M276.22,379.29c0,6.82,0.08,13.65-0.03,20.47c-0.09,5.38-2.6,7.96-7.98,8.01c-13.65,0.11-27.3,0.11-40.94,0.04
		c-5.11-0.03-8.08-2.86-8.13-8.07c-0.13-13.81-0.09-27.63,0.03-41.44c0.04-4.86,2.48-7.5,7.37-7.55
		c14.31-0.17,28.63-0.14,42.94,0.01c4.33,0.05,6.64,2.66,6.66,7.07c0.02,7.16,0.01,14.31,0.01,21.47
		C276.17,379.29,276.2,379.29,276.22,379.29z M233.03,379.3c0,3.49,0.17,6.98-0.05,10.45c-0.18,2.9,0.6,4.3,3.77,4.24
		c7.3-0.14,14.61-0.11,21.91-0.02c2.39,0.03,3.73-0.57,3.73-3.27c0-7.63,0.13-15.26,0.24-22.89c0.04-2.86-1.56-3.64-4.12-3.62
		c-6.64,0.07-13.28,0.13-19.92,0c-4.39-0.09-6.21,1.63-5.64,6.15C233.33,373.29,233.02,376.32,233.03,379.3z"/>
	<path class="st0" d="M359.75,378.99c0-6.5-0.08-12.99,0.02-19.49c0.11-6.8,1.97-8.75,8.57-8.81c13.32-0.12,26.65-0.17,39.98-0.11
		c6.11,0.03,8.55,2.76,8.56,9.06c0.02,12.83,0.04,25.65,0.01,38.48c-0.02,7.3-2.61,9.77-10.03,9.74
		c-12.82-0.05-25.64-0.05-38.46-0.12c-6.38-0.04-8.68-2.34-8.74-8.77c-0.06-6.66-0.01-13.33-0.01-19.99
		C359.69,378.99,359.72,378.99,359.75,378.99z M388.02,393.97c0-0.01,0-0.01,0-0.02c3.65,0,7.31-0.09,10.95,0.03
		c2.6,0.09,4.02-0.59,3.98-3.56c-0.1-7.63-0.05-15.27,0.07-22.9c0.04-2.46-1.2-3.24-3.33-3.23c-7.63,0.02-15.26,0.1-22.89,0.08
		c-2.58-0.01-3.51,1.31-3.5,3.7c0.05,7.47,0.07,14.93,0.08,22.4c0,2.48,1.17,3.59,3.68,3.53
		C380.72,393.9,384.37,393.97,388.02,393.97z"/>
	<path class="st0" d="M318.01,407.8c-6.49,0-12.98,0.04-19.47-0.01c-6.54-0.05-9.26-2.56-9.3-8.94
		c-0.09-13.14-0.06-26.29,0.04-39.43c0.05-6.17,2.66-8.69,8.9-8.72c13.14-0.06,26.29-0.06,39.43,0.01c6.79,0.03,8.77,1.88,8.82,8.55
		c0.12,13.31,0.1,26.62,0.01,39.93c-0.04,6.21-2.61,8.57-8.96,8.62c-6.49,0.05-12.98,0.01-19.47,0.01
		C318.01,407.82,318.01,407.81,318.01,407.8z M318.09,393.97c0-0.01,0-0.02,0-0.02c3.5,0,7-0.13,10.5,0.04
		c2.94,0.15,4.32-0.91,4.29-3.94c-0.06-7.33-0.04-14.66,0.01-21.99c0.02-2.44-0.89-3.77-3.47-3.75c-7.5,0.04-14.99,0.06-22.49,0.04
		c-3.02-0.01-4.04,1.47-3.93,4.37c0.16,3.99,0.02,8,0.02,12c-0.01,13.3-0.01,13.3,13.07,13.27
		C316.76,393.97,317.43,393.97,318.09,393.97z"/>
	<path class="st0" d="M444.11,539.65c0-8.33-0.04-16.66,0.02-25c0.04-4.88,2.82-8.19,6.78-8.32c4.17-0.14,7.12,3.27,7.14,8.39
		c0.03,15.16,0.09,30.33-0.05,45.49c-0.03,2.91,0.8,4.95,2.87,6.96c7.76,7.55,15.36,15.27,23.02,22.93
		c0.94,0.94,1.96,1.83,2.76,2.89c2.43,3.21,2.64,6.59-0.4,9.39c-2.93,2.7-6.38,2.89-9.36-0.06c-10.18-10.07-20.27-20.25-30.41-30.37
		c-1.91-1.91-2.41-4.21-2.39-6.82C444.15,556.65,444.11,548.15,444.11,539.65z"/>
</g>
</svg>
