<?xml version="1.0" encoding="utf-8"?>
<!-- Generator: Adobe Illustrator 27.6.1, SVG Export Plug-In . SVG Version: 6.00 Build 0)  -->
<svg version="1.1" id="Capa_1" xmlns="http://www.w3.org/2000/svg" xmlns:xlink="http://www.w3.org/1999/xlink" x="0px" y="0px"
	 viewBox="0 0 595.28 841.89" style="enable-background:new 0 0 595.28 841.89;" xml:space="preserve">
<style type="text/css">
	.st0{fill:#77655C;}
</style>
<g>
	<path class="st0" d="M227.52,469.56c-3.4-11.3-10.41-20.14-18.93-28c-1.12-1.04-1.66-2.71-2.47-4.09
		c-0.17-0.51-0.35-1.02-0.52-1.54c0.01-1.48,0.02-2.96,0.03-4.43c-0.01-0.47-0.02-0.94-0.03-1.42c0.5-2.45,0.99-4.9,1.49-7.36
		c-0.01-0.47-0.02-0.94-0.03-1.42c1.17-7.08,2.31-14.16,3.5-21.23c1.36-8.12,2.82-16.23,4.12-24.36c0.49-3.04,0.65-6.13,0.96-9.2
		c0.02-0.21,0.03-0.43,0.03-0.64c0.97-4.79,2.06-9.57,2.9-14.39c1.56-8.97,2.94-17.96,4.45-26.94c1.16-6.88,2.41-13.74,3.61-20.62
		c1.2-6.88,2.46-13.74,3.58-20.63c0.85-5.27,1.5-10.58,2.29-15.86c0.14-0.9,0.57-1.76,0.87-2.64c0-0.48-0.01-0.96-0.01-1.43
		c0.18-0.25,0.35-0.5,0.53-0.75c0.26-0.48,0.52-0.97,0.78-1.45c0,0,0,0,0,0c0.48-0.26,0.96-0.52,1.45-0.79
		c2.41-1.41,4.87-0.92,6.28,1.08c1.05,1.49,1.42,3.89,1.17,5.76c-1.07,8.09-2.49,16.13-3.78,24.18c-1.36,8.42-2.72,16.85-4.09,25.27
		c-1.6,9.87-3.21,19.75-4.5,29.84c2.72-3.71,8.61-4.63,8.95-10.17c0.17-2.79-0.75-5.54,0.06-8.5c1.04-3.85,1.34-7.9,1.96-11.86
		c0.18-0.49,0.36-0.98,0.53-1.48c0.07-0.24,0.13-0.48,0.2-0.72c0.18-0.49,0.35-0.98,0.53-1.47c4.39-13.07,12.46-23.46,23.56-31.43
		c12.22-8.78,25.93-13.14,41.03-13.16c4.31-0.01,8.63-0.34,12.94-0.52c0.26,0.18,0.51,0.35,0.77,0.53
		c9.28,0.09,18.01,2.66,26.64,5.77c15.81,5.71,29.31,14.94,40.36,27.48c7.47,8.48,12.47,18.37,13.39,29.94
		c0.15,1.87,0.51,3.72,0.87,6.24c2.92,2.56,6.57,5.75,10.83,9.47c-0.29-1.46-0.43-2.16-0.57-2.87c0.01-0.47,0.02-0.95,0.03-1.42
		c-0.25-0.99-0.5-1.98-0.75-2.97c0.01-0.47,0.02-0.95,0.03-1.42c-0.25-0.99-0.5-1.98-0.76-2.97c0.01-0.47,0.02-0.95,0.03-1.42
		c-0.25-0.99-0.5-1.98-0.76-2.97c0.01-0.47,0.02-0.95,0.03-1.42c-0.25-0.99-0.5-1.98-0.76-2.97c0.01-0.47,0.02-0.95,0.03-1.42
		c-0.25-0.99-0.5-1.98-0.76-2.97c-0.01-0.72-0.03-1.44-0.04-2.16c-0.23-0.74-0.46-1.49-0.69-2.23c-0.01-0.72-0.03-1.44-0.04-2.16
		c-0.23-0.74-0.46-1.49-0.69-2.23c-0.01-0.72-0.03-1.44-0.04-2.16c-0.23-0.74-0.46-1.49-0.69-2.23c-0.01-0.72-0.03-1.44-0.04-2.16
		c-0.78-3.9-1.63-7.8-2.32-11.72c-1.43-8.1-2.88-16.2-4.11-24.33c-0.39-2.56-0.12-5.22-0.16-7.84c0.19-0.27,0.38-0.53,0.57-0.8
		c2.01-0.67,4.24-2.24,5.98-1.8c3.07,0.77,3.74,4.14,4.23,6.9c2.3,12.9,4.52,25.81,6.56,38.75c0.85,5.4,1.06,10.91,1.81,16.33
		c0.31,2.24,1.96,4.46,1.74,6.56c-0.25,2.41,1.65,4.27,0.6,7.04c-0.76,2.01,1.24,4.97,1.77,7.56c1.06,5.2,1.94,10.44,2.94,15.66
		c0.44,2.3,0.98,4.57,1.47,6.86c0.19,0.26,0.39,0.51,0.58,0.77c0.3,3.91,0.33,7.87,0.94,11.73c1.27,8.04,2.88,16.03,4.3,24.05
		c1.47,8.29,2.9,16.59,4.29,24.9c0.2,1.18,0.09,2.42,0.12,3.63c0.17,0.25,0.34,0.5,0.51,0.76c0.88,4.05-0.84,7.05-3.48,10.02
		c-5.33,5.98-11.14,11.75-15.24,18.53c-2.99,4.93-3.95,11.25-5.08,17.1c-0.98,5.07-0.91,10.41-4.05,14.8
		c-3.28,4.59-7.04,8.83-10.28,13.45c-3.85,5.48-7.93,10.92-10.82,16.9c-1.97,4.1-0.82,8.99,1.91,12.9c1.55,2.22,3.77,3.49,6.25,0.87
		c0.26-0.49,0.52-0.98,0.78-1.47c0.47-0.48,0.95-0.97,1.42-1.45c0.26-0.49,0.52-0.98,0.78-1.47c0.47-0.49,0.95-0.97,1.42-1.46
		c0.26-0.49,0.52-0.97,0.78-1.46c0.47-0.49,0.95-0.98,1.42-1.46c0.26-0.48,0.52-0.97,0.77-1.45c0.47-0.49,0.95-0.98,1.42-1.47
		c0.26-0.48,0.52-0.96,0.77-1.44c5.19-6.83,10.37-13.67,15.56-20.5c0.17-0.24,0.34-0.49,0.51-0.74c0.47-0.48,0.94-0.97,1.42-1.45
		c0.26-0.49,0.52-0.98,0.78-1.47c0.47-0.49,0.95-0.97,1.42-1.46c0.26-0.49,0.52-0.97,0.78-1.46c0.47-0.49,0.95-0.98,1.42-1.46
		c0.26-0.48,0.52-0.97,0.77-1.45c0.47-0.49,0.95-0.98,1.42-1.47c0.26-0.48,0.52-0.96,0.77-1.44c1.62-1.26,3.16-2.63,4.87-3.77
		c2.34-1.56,4.93-0.71,5.87,1.31c0.85,1.83,0.98,5.04-0.1,6.57c-6.35,9.03-13.16,17.75-19.8,26.58
		c-5.79,7.69-11.42,15.5-17.42,23.02c-1.63,2.04-4.21,3.44-6.59,4.71c-3.19,1.71-6.59,3-9.9,4.47c-0.26,0.19-0.53,0.39-0.79,0.58
		c-4.58,1.74-9.14,3.52-13.74,5.22c-6.73,2.48-10.2,8.63-8.75,14.91c10.86-3.74,21.72-7.58,32.65-11.22
		c16.15-5.38,30.58-13.41,41.71-26.61c1.74-2.07,3.4-4.21,5.09-6.31c0.26-0.49,0.52-0.98,0.78-1.48
		c5.13-9.25,10.31-18.48,15.37-27.77c1.96-3.6,4.64-4.77,8.12-3.19c2.87,1.3,3.69,3.89,2.06,7.64
		c-6.39,14.64-14.22,28.41-24.92,40.38c-1.81,2.02-3.82,3.86-5.74,5.79c-0.2,0.19-0.39,0.38-0.59,0.57
		c-8.8,8.16-18.8,14.27-30.11,18.39c-1.9,0.69-3.39,2.77-4.82,4.42c-2.88,3.33-5.58,6.82-8.35,10.24c-0.18,0.19-0.36,0.39-0.55,0.58
		c-5.18,5.17-10.36,10.34-15.54,15.51c-0.2,0.19-0.41,0.39-0.61,0.58c-8.8,6.83-17.59,13.66-26.39,20.49
		c-0.25,0.19-0.51,0.39-0.76,0.58c-8.06,3.56-16.11,7.13-24.18,10.64c-0.84,0.37-1.85,0.34-2.79,0.5c-0.76,0.23-1.52,0.46-2.28,0.7
		c-2.44,0-4.87,0-7.31,0c-3.9-1.27-7.8-2.54-11.69-3.81c-0.44-0.2-0.88-0.4-1.31-0.59c-2.97-1.51-5.95-3.02-8.92-4.53
		c-0.43-0.19-0.87-0.39-1.3-0.58c-9.31-6.87-18.63-13.74-27.94-20.61c-0.76-0.67-1.52-1.34-2.27-2.01
		c-6.31-6.35-12.62-12.7-18.93-19.05c-0.66-0.49-1.31-0.97-1.97-1.46c-1.3-1.94-2.6-3.88-3.89-5.82c-0.26-0.49-0.52-0.98-0.78-1.47
		c-0.47-0.49-0.94-0.98-1.41-1.48c-0.26-0.48-0.51-0.97-0.77-1.45c-7.29-3.66-14.58-7.31-21.85-11.01c-0.59-0.3-1.02-0.91-1.52-1.37
		c-0.51-0.25-1.01-0.51-1.52-0.76c-0.47-0.48-0.94-0.96-1.4-1.44c-0.51-0.26-1.02-0.52-1.54-0.78c-0.95-0.79-1.9-1.58-2.85-2.37
		c-0.2-0.19-0.41-0.38-0.61-0.58c-0.28-0.07-0.55-0.15-0.83-0.22c0.01-0.15,0.01-0.31,0-0.46c-5.83-6.93-12.18-13.51-17.33-20.91
		c-4.66-6.69-8-14.29-11.93-21.49c-0.2-0.25-0.39-0.51-0.59-0.76c-0.1-0.21-0.15-0.43-0.15-0.67c-0.18-0.26-0.37-0.53-0.55-0.79
		c-0.74-1.22-1.48-2.44-2.22-3.66c2.43-1.62,0.73-2.24-0.7-2.93c-0.3-1.2-0.6-2.39-0.9-3.59c-0.17-0.26-0.33-0.52-0.5-0.78
		c-0.07-0.49-0.14-0.98-0.22-1.46c-0.19-0.73-0.38-1.46-0.58-2.19c-0.15-0.2-0.21-0.42-0.18-0.67c-0.17-0.51-0.35-1.01-0.52-1.52
		c-1.52-6.02-3.19-12-4.52-18.06c-0.93-4.26-1.47-8.61-2.05-12.95c-0.42-3.15-0.59-6.34-0.92-9.5c-1.47-13.97-2.1-27.97-2.22-42.01
		c-0.06-7.84-0.37-15.68-0.56-23.51c0.09-0.07,0.25-0.15,0.24-0.2c-0.04-0.18-0.14-0.35-0.22-0.52c0-13.89,0-27.79,0.01-41.68
		c0.08-0.07,0.25-0.17,0.24-0.21c-0.06-0.18-0.18-0.35-0.27-0.52c0.2-15.78,0.35-31.56,0.62-47.34c0.09-5.55,0.44-11.1,0.71-16.64
		c0.21-4.33,0.4-8.66,0.76-12.98c0.23-2.83,2.88-5.02,5.63-4.92c2.96,0.11,5.35,2.52,5.28,5.58c-0.2,9.69-0.56,19.38-0.72,29.07
		c-0.11,6.83,0.16,13.66-0.06,20.48c-0.12,3.67-1.3,7.31-1.33,10.97c-0.14,19.97-0.15,39.95-0.03,59.92
		c0.07,11.64,0.34,23.29,0.74,34.92c0.26,7.57,1,15.13,1.39,22.7c0.19,3.6-0.33,7.27,0.17,10.81c0.7,4.97,2.19,9.81,3.07,14.76
		c0.48,2.69,0.09,5.55,0.64,8.22c0.57,2.78,1.74,5.45,2.75,8.13c1.93,5.16,3.78,10.35,5.92,15.42
		c5.29,12.53,12.01,24.17,20.69,34.76c6.9,8.41,15.12,15.14,24.49,20.16c6.78,3.63,14.5,5.51,21.78,8.23
		c8.61,3.22,17.17,6.54,25.81,9.69c0.52,0.19,2.05-0.73,2.09-1.2c0.24-3.22,0.59-6.56-2.12-9.12c-0.19-0.27-0.39-0.53-0.58-0.8
		c-7.18-3.42-14.32-6.91-21.54-10.24c-3.5-1.62-7.49-2.42-10.61-4.55c-3.11-2.12-5.69-5.21-8.01-8.25
		c-10.25-13.43-20.32-26.99-30.47-40.5c-1.01-1.34-2.18-2.56-3.12-3.94c-1.73-2.55-2.48-5.2-0.1-7.84c0.2-0.2,0.4-0.4,0.6-0.59
		c3.49-1.6,6.09-1,8.27,1.88c12.1,15.93,24.21,31.86,36.31,47.8c1.54,2.03,5.25,1.09,6.61-1.94c3.21-7.14,1.63-13.62-2.88-19.75
		c-6.33-8.59-12.57-17.25-18.66-26c-1.09-1.56-1.45-3.73-1.83-5.67c-0.81-4.16-1.4-8.36-2.09-12.54c0.08-0.07,0.24-0.15,0.23-0.2
		C227.68,469.89,227.59,469.73,227.52,469.56z M251.47,325.51c-0.24,0.26-0.47,0.52-0.71,0.78c0,1.2,0,2.4,0,4.23
		c1.39-1.03,2.1-1.55,2.8-2.08c0.52-0.26,1.04-0.51,1.55-0.77c3.22-2.17,6.44-4.35,9.66-6.52c2.11,0.23,2.34-0.62,1.29-2.22
		c0.05-0.24,0.11-0.48,0.16-0.72c0.22-0.72,0.44-1.45,0.66-2.17c2.31-9.36,8.2-16.49,15.45-22.16c4.2-3.28,9.62-6.17,14.8-6.83
		c13.77-1.77,27.28,0.46,39.54,7.34c12.89,7.24,25.51,14.96,38.19,22.57c4.91,2.95,9.65,6.18,14.46,9.28
		c0.32-0.19,0.64-0.37,0.97-0.56c-1.65-3.56-3-7.31-5.01-10.65c-7.58-12.59-19.26-20.59-31.86-27.32c-9-4.81-18.83-7.34-28.84-9.15
		c-0.48,0.01-0.96,0.01-1.43,0.02c-2.47-0.2-4.96-0.68-7.42-0.53c-4.98,0.29-9.94,0.83-14.89,1.44c-8.81,1.08-17.07,3.76-24.49,8.76
		c-0.24,0.19-0.49,0.39-0.73,0.58c-0.49,0.29-0.99,0.59-1.48,0.88c-0.24,0.19-0.48,0.39-0.71,0.58
		c-10.59,6.53-16.64,16.41-20.43,27.88c-0.69,2.09-0.64,4.42-0.93,6.64C251.87,325.03,251.67,325.27,251.47,325.51L251.47,325.51z
		 M372.79,418.4l0.02,0.02c-0.67-0.75-1.35-1.5-2.02-2.25c-2.27-4.93,0.03-8.79,5.22-7.88c3.46,0.61,6.65,2.75,9.96,4.22
		c10.55,4.72,20.54,10.37,28.59,18.81c2.54,2.67,4.33,6.05,6.65,9.36c1.75-1.79,3.66-3.22,4.85-5.12c1.11-1.76,2.25-4.13,1.97-6.03
		c-0.94-6.45-2.5-12.82-3.82-19.22c0.01-0.48,0.02-0.95,0.03-1.43c-0.26-0.99-0.51-1.97-0.77-2.96c0.01-0.48,0.02-0.95,0.03-1.43
		c-1.05-6.57-2.09-13.15-3.14-19.72c-0.19-0.74-0.38-1.48-0.57-2.22c-0.29-0.99-0.64-1.97-0.85-2.98
		c-0.69-3.43-0.34-7.54-2.16-10.17c-4.63-6.74-10.22-12.82-15.42-19.16c-0.26-0.19-0.51-0.39-0.77-0.58
		c-2.67-2.43-5.34-4.86-8.01-7.29c-0.5-0.25-1-0.5-1.5-0.75c-0.71-0.3-1.42-0.6-2.14-0.89c-0.51-0.43-1.02-0.86-1.53-1.29
		c-1.93-1.7-3.87-3.39-5.8-5.09c-0.52-0.26-1.04-0.52-1.56-0.79c-0.19-0.2-0.38-0.4-0.56-0.6c-0.54-0.29-1.09-0.57-1.63-0.86
		c-8.74-5.34-17.49-10.68-26.23-16.01c-0.5-0.26-1-0.52-1.5-0.77c-6.8-3.95-13.6-7.9-20.4-11.86c-0.51-0.19-1.03-0.38-1.54-0.57
		c-1.92-0.78-3.85-1.57-5.77-2.35c-0.74-0.2-1.48-0.39-2.22-0.59c-6.06-2.89-12.6-2.65-18.91-2c-3.76,0.38-7.32,2.74-10.96,4.21
		c-0.51,0.43-1.02,0.86-1.53,1.29c-7.19,4.25-10.27,11.29-12.19,18.85c-0.8,3.15-1.08,6.8-0.33,9.91
		c2.92,12.06,10.74,20.61,20.74,27.49c7.48,5.14,14.8,10.53,22.19,15.81l0.05,0.04c0.83,0.77,1.55,1.73,2.5,2.29
		c7.32,4.29,14.68,8.5,22.02,12.74c0.44,0.2,0.87,0.4,1.31,0.59c3.07,1.85,6.14,3.69,9.21,5.54l0.04,0.04
		c6.17,3.88,4.98,5.74-0.06,10.43c-2.65-0.98-5.18-1.88-7.68-2.87c-0.65-0.26-1.15-0.85-1.78-1.19c-1.11-0.61-2.26-1.14-3.4-1.71
		c-0.24-0.19-0.49-0.39-0.73-0.58c-1.23-0.46-2.45-0.93-3.68-1.39c-0.72-0.51-1.44-1.02-2.17-1.54c-3.65-2.3-7.2-4.79-10.99-6.82
		c-1.39-0.75-3.46-0.85-5.02-0.45c-1.18,0.3-1.89,2.11-3.07,2.81c-9.17,5.45-18.4,10.8-27.62,16.19c-0.27,0.19-0.54,0.39-0.81,0.58
		c-7.06,3.45-14.12,6.88-21.16,10.36c-10.1,4.98-20.21,10-28.15,18.25c-3.67,3.82-6.46,8.43-6.12,13.91c0.16,2.62,2,5.11,2.93,7.72
		c1.72,4.84,3.42,9.7,4.94,14.61c0.96,3.11,1.24,6.46,2.45,9.45c0.85,2.1,2.74,3.79,4.16,5.66c0.44,0.44,0.88,0.88,1.33,1.32
		c0.78,1.27,1.55,2.53,2.33,3.8c0.44,0.44,0.88,0.88,1.32,1.32c1.55,2.37,3.23,4.66,4.63,7.11c3.14,5.49,6.72,10.83,9.01,16.67
		c1.41,3.6,0.74,8,1.01,12.04c-0.2,0.49-0.4,0.98-0.6,1.47c-1.38,2.84-2.76,5.68-4.37,8.99c2.18,1.08,4.48,2.22,6.77,3.37
		c4.42,2.21,9.21,3.89,13.17,6.74c8.19,5.89,9,14.78,7.5,23.76c-0.93,5.54-9.01,10.26-14.99,7.43c-5.13-2.43-10.73-3.85-16.12-5.72
		c-0.63-0.25-1.25-0.5-1.88-0.75c-0.08,0.16-0.16,0.33-0.25,0.49c0.69,0.61,1.39,1.22,2.08,1.83c3.89,3.88,7.77,7.76,11.66,11.64
		c0.26,0.19,0.52,0.37,0.78,0.56c12.36,10.8,25.4,20.61,40.17,27.94c0.51,0.19,1.02,0.38,1.52,0.57c5.29,1.73,10.61,3.82,16.17,1.16
		c7.73-3.71,15.9-6.78,22.95-11.52c9.65-6.49,18.52-14.17,27.54-21.57c3.51-2.88,6.5-6.38,9.73-9.6c-1.15-0.56-1.85-0.58-2.48-0.37
		c-5.36,1.82-10.74,3.57-16.04,5.56c-3.97,1.49-7.32,0.4-10.01-2.38c-4.85-5.03-4.89-11.12-3.07-17.43c0.17-0.5,0.35-1,0.52-1.5
		c1.94-6.92,6.37-11.49,13.13-13.86c0.26-0.18,0.52-0.36,0.77-0.53c4.33-1.87,8.67-3.74,13.02-5.61
		c-5.86-9.47-5.86-17.56-4.04-23.09c0.17-0.5,0.34-1.01,0.51-1.51c0.97-2.25,1.62-4.71,2.96-6.72c3.93-5.92,8.32-11.53,12.16-17.51
		c3.14-4.89,7.98-8.81,8.89-15.03c0.45-3.05,0.5-6.23,1.48-9.1c1.66-4.84,3.89-9.49,5.91-14.21c1.17-2.75,1.64-5.33,0.19-8.3
		c-2.22-4.57-4.86-8.71-8.9-11.86c-0.21-0.19-0.43-0.38-0.64-0.57c-5.58-3.64-11.04-7.5-16.79-10.86c-3.71-2.16-7.85-3.59-11.8-5.34
		C373.31,418.78,373.05,418.59,372.79,418.4z M265.38,334.11c-11.42,7.44-22.53,15.28-31.21,25.97c-2.76,3.4-6.3,6.87-7.29,10.85
		c-2.46,9.98-3.66,20.26-5.38,30.42c-1.38,8.17-2.91,16.32-4.07,24.53c-0.43,3.03-0.59,6.36,0.25,9.22
		c0.65,2.23,3.04,3.95,4.86,6.15c1.12-1.44,1.64-1.93,1.94-2.52c5.81-11.34,16.43-17.32,26.85-23.09
		c15.94-8.81,32.39-16.7,48.53-25.15c4.02-2.11,7.71-4.85,11.25-7.1c-9.28-6.82-18.35-13.45-27.38-20.15
		c-7.46-5.53-12.6-12.76-15.45-21.6c-0.18-0.5-0.35-0.99-0.53-1.49c-0.55-1.95-1.1-3.91-1.65-5.86
		C265.86,334.23,265.62,334.17,265.38,334.11z"/>
	<path class="st0" d="M324.59,634.05c0.76-0.23,1.52-0.46,2.28-0.7c-0.11,0.22-0.14,0.45-0.09,0.7
		C326.05,634.05,325.32,634.05,324.59,634.05z"/>
	<path class="st0" d="M470.11,478.25c0.37-4.14,0.67-8.29,1.11-12.42c0.53-4.9,1.3-9.79,1.76-14.7c0.82-8.83,1.9-17.66,2.06-26.51
		c0.1-5.4,1.77-11.09-1.25-16.31c-0.16-0.27-0.16-0.92,0.01-1.05c4.01-3.05,1.92-7.35,2.04-11.03c0.44-13.6,0.64-27.21,0.65-40.82
		c0.01-12.51-0.31-25.03-0.56-37.54c-0.17-8.35-0.45-16.7-0.73-25.04c-0.18-5.43-0.46-10.85-0.69-16.27
		c-0.02-0.37,0.14-0.93-0.04-1.07c-4.14-3.09-0.19-6.72-0.6-10.09c-0.41-3.3,2.41-5.76,5.49-5.69c3.14,0.08,5.19,2.43,5.37,5.86
		c0.41,7.44,0.65,14.91,1.5,22.3c0.71,6.22-0.78,12.36-0.04,18.52c0.37,3.03,1.15,6.02,1.4,9.06c0.14,1.71-0.64,3.48-0.66,5.23
		c-0.07,7.68-0.01,15.35,0,23.03c0.18,0.27,0.35,0.54,0.53,0.81c-0.01,14.62-0.02,29.25-0.03,43.87c-0.17,0.27-0.34,0.53-0.5,0.8
		c-0.01,2.68,0.03,5.36-0.04,8.04c-0.23,9.94-0.37,19.88-0.78,29.8c-0.21,5.02-0.94,10.01-1.4,15.02c-0.53,5.82-1,11.65-1.53,17.47
		c-0.02,0.27-0.43,0.5-0.66,0.75c-0.17,0.01-0.34,0.03-0.51,0.04c0.17,0.15,0.33,0.3,0.5,0.46c-0.49,3.26-0.99,6.51-1.48,9.77
		c-0.18,0.15-0.35,0.31-0.53,0.46c-0.31,2.93-0.13,6.03-1.13,8.7c-0.45,1.21-3.24,2.11-4.96,2.09c-1.26-0.02-2.49-1.77-3.73-2.74
		C470.49,478.78,470.3,478.51,470.11,478.25z"/>
	<path class="st0" d="M170.47,500.98c1.43,0.69,3.13,1.32,0.7,2.93C170.94,502.94,170.71,501.96,170.47,500.98z"/>
	<path class="st0" d="M263.83,601.91c0.76,0.67,1.52,1.34,2.27,2.01C265.34,603.25,264.59,602.58,263.83,601.91z"/>
	<path class="st0" d="M242.93,581.4c0.66,0.49,1.31,0.97,1.97,1.46C244.24,582.37,243.59,581.89,242.93,581.4z"/>
	<path class="st0" d="M408.81,315.29c0.01,0.72,0.03,1.44,0.04,2.16C408.84,316.73,408.83,316.01,408.81,315.29z"/>
	<path class="st0" d="M304.27,629.65c0.44,0.2,0.88,0.4,1.31,0.59C305.15,630.05,304.71,629.85,304.27,629.65z"/>
	<path class="st0" d="M407.35,306.51c0.01,0.72,0.03,1.44,0.04,2.16C407.38,307.95,407.37,307.23,407.35,306.51z"/>
	<path class="st0" d="M408.08,310.9c0.01,0.72,0.03,1.44,0.04,2.16C408.11,312.34,408.1,311.62,408.08,310.9z"/>
	<path class="st0" d="M294.04,624.53c0.43,0.19,0.87,0.39,1.3,0.58C294.91,624.92,294.48,624.73,294.04,624.53z"/>
	<path class="st0" d="M409.54,319.67c0.01,0.72,0.03,1.44,0.04,2.16C409.57,321.11,409.56,320.39,409.54,319.67z"/>
	<path class="st0" d="M168.28,492.95c0.19,0.73,0.38,1.46,0.58,2.19C168.66,494.42,168.47,493.68,168.28,492.95z"/>
	<path class="st0" d="M413.26,342.35c-0.01,0.47-0.02,0.95-0.03,1.42C413.24,343.29,413.25,342.82,413.26,342.35z"/>
	<path class="st0" d="M236.1,260.38c-0.48,0.26-0.96,0.52-1.45,0.79C235.14,260.91,235.62,260.64,236.1,260.38z"/>
	<path class="st0" d="M234.65,261.17c-0.26,0.48-0.52,0.97-0.78,1.45C234.14,262.14,234.39,261.65,234.65,261.17z"/>
	<path class="st0" d="M233.35,263.38c0,0.48,0.01,0.96,0.01,1.43C233.35,264.33,233.35,263.85,233.35,263.38z"/>
	<path class="st0" d="M238.26,574.12c0.26,0.49,0.52,0.98,0.78,1.47C238.78,575.1,238.52,574.61,238.26,574.12z"/>
	<path class="st0" d="M236.08,571.19c0.26,0.48,0.51,0.97,0.77,1.45C236.59,572.16,236.34,571.67,236.08,571.19z"/>
	<path class="st0" d="M412.53,337.96c-0.01,0.47-0.02,0.95-0.03,1.42C412.51,338.91,412.52,338.43,412.53,337.96z"/>
	<path class="st0" d="M211.19,558.04c0.51,0.25,1.01,0.51,1.52,0.76C212.2,558.55,211.69,558.3,211.19,558.04z"/>
	<path class="st0" d="M208.25,555.82c0.51,0.26,1.02,0.52,1.54,0.78C209.27,556.35,208.76,556.08,208.25,555.82z"/>
	<path class="st0" d="M399.15,534.59c-0.26,0.49-0.52,0.98-0.78,1.47C398.64,535.57,398.89,535.08,399.15,534.59z"/>
	<path class="st0" d="M401.35,531.68c-0.26,0.49-0.52,0.98-0.78,1.47C400.83,532.65,401.09,532.16,401.35,531.68z"/>
	<path class="st0" d="M403.55,528.76c-0.26,0.49-0.52,0.97-0.78,1.46C403.03,529.73,403.29,529.25,403.55,528.76z"/>
	<path class="st0" d="M242.69,314.51c-0.18,0.49-0.36,0.98-0.53,1.48C242.33,315.49,242.51,315,242.69,314.51z"/>
	<path class="st0" d="M243.42,312.32c-0.18,0.49-0.35,0.98-0.53,1.47C243.07,313.3,243.24,312.81,243.42,312.32z"/>
	<path class="st0" d="M207.05,421.31c0.01,0.47,0.02,0.94,0.03,1.42C207.07,422.25,207.06,421.78,207.05,421.31z"/>
	<path class="st0" d="M205.59,430.08c0.01,0.47,0.02,0.94,0.03,1.42C205.61,431.02,205.6,430.55,205.59,430.08z"/>
	<path class="st0" d="M446.68,528.01c-0.26,0.49-0.52,0.98-0.78,1.48C446.16,528.99,446.42,528.5,446.68,528.01z"/>
	<path class="st0" d="M405.74,525.84c-0.26,0.48-0.52,0.97-0.77,1.45C405.23,526.81,405.49,526.33,405.74,525.84z"/>
	<path class="st0" d="M205.59,435.93c0.17,0.51,0.35,1.02,0.52,1.54C205.94,436.95,205.77,436.44,205.59,435.93z"/>
	<path class="st0" d="M407.94,522.93c-0.26,0.48-0.52,0.96-0.77,1.44C407.43,523.89,407.68,523.41,407.94,522.93z"/>
	<path class="st0" d="M430.6,492.94c-0.26,0.48-0.52,0.97-0.77,1.45C430.09,493.91,430.34,493.43,430.6,492.94z"/>
	<path class="st0" d="M411.07,329.19c-0.01,0.47-0.02,0.95-0.03,1.42C411.05,330.13,411.06,329.66,411.07,329.19z"/>
	<path class="st0" d="M426.21,498.77c-0.26,0.49-0.52,0.98-0.78,1.47C425.69,499.75,425.95,499.26,426.21,498.77z"/>
	<path class="st0" d="M428.41,495.86c-0.26,0.49-0.52,0.97-0.78,1.46C427.89,496.83,428.15,496.34,428.41,495.86z"/>
	<path class="st0" d="M410.34,324.8c-0.01,0.47-0.02,0.95-0.03,1.42C410.32,325.75,410.33,325.27,410.34,324.8z"/>
	<path class="st0" d="M432.8,490.03c-0.26,0.48-0.52,0.96-0.77,1.44C432.28,490.99,432.54,490.51,432.8,490.03z"/>
	<path class="st0" d="M167.58,490.76c0.17,0.51,0.35,1.01,0.52,1.52C167.93,491.77,167.75,491.27,167.58,490.76z"/>
	<path class="st0" d="M411.8,333.57c-0.01,0.47-0.02,0.95-0.03,1.42C411.78,334.52,411.79,334.05,411.8,333.57z"/>
	<path class="st0" d="M201.75,486.49c-0.2,0.2-0.4,0.4-0.6,0.59C201.35,486.89,201.55,486.69,201.75,486.49z"/>
	<path class="st0" d="M169.07,496.61c0.17,0.26,0.33,0.52,0.5,0.78C169.4,497.13,169.24,496.87,169.07,496.61z"/>
	<path class="st0" d="M424.01,501.69c-0.17,0.25-0.34,0.49-0.51,0.74C423.67,502.18,423.84,501.94,424.01,501.69z"/>
	<path class="st0" d="M173.4,507.57c0.18,0.26,0.37,0.53,0.55,0.79C173.77,508.1,173.58,507.84,173.4,507.57z"/>
	<path class="st0" d="M174.1,509.03c0.2,0.25,0.39,0.51,0.59,0.76C174.5,509.54,174.3,509.29,174.1,509.03z"/>
	<path class="st0" d="M227.52,469.56c0.07,0.17,0.17,0.33,0.21,0.51c0.01,0.05-0.15,0.13-0.23,0.2
		C227.5,470.03,227.51,469.79,227.52,469.56z"/>
	<path class="st0" d="M439.17,431.51c-0.17-0.25-0.34-0.5-0.51-0.76C438.83,431.01,439,431.26,439.17,431.51z"/>
	<path class="st0" d="M321.72,267.73c-0.26-0.18-0.51-0.35-0.77-0.53C321.21,267.38,321.47,267.56,321.72,267.73z"/>
	<path class="st0" d="M203.96,552.19c0.01,0.15,0.01,0.31,0,0.46c-0.2-0.04-0.4-0.09-0.6-0.13
		C203.56,552.41,203.76,552.3,203.96,552.19z"/>
	<path class="st0" d="M204.79,552.88c0.2,0.19,0.41,0.38,0.61,0.58C205.2,553.26,204.99,553.07,204.79,552.88z"/>
	<path class="st0" d="M388.94,553.5c0.26-0.19,0.53-0.39,0.79-0.58C389.46,553.11,389.2,553.31,388.94,553.5z"/>
	<path class="st0" d="M486.93,389.19c0.17-0.27,0.34-0.53,0.5-0.8C487.26,388.66,487.1,388.93,486.93,389.19z"/>
	<path class="st0" d="M157.32,384.01c0.08,0.17,0.17,0.34,0.22,0.52c0.01,0.05-0.16,0.13-0.24,0.2
		C157.3,384.49,157.31,384.25,157.32,384.01z"/>
	<path class="st0" d="M275,562.41c0.19,0.27,0.39,0.53,0.58,0.8C275.38,562.94,275.19,562.68,275,562.41z"/>
	<path class="st0" d="M429.01,366.45c-0.19-0.26-0.39-0.51-0.58-0.77C428.62,365.94,428.81,366.19,429.01,366.45z"/>
	<path class="st0" d="M215.65,365.88c0,0.21-0.01,0.43-0.03,0.64c-0.18-0.18-0.35-0.36-0.53-0.55
		C215.28,365.94,215.47,365.91,215.65,365.88z"/>
	<path class="st0" d="M401.33,261.83c-0.19,0.27-0.38,0.53-0.57,0.8C400.95,262.36,401.14,262.09,401.33,261.83z"/>
	<path class="st0" d="M487.46,344.53c-0.18-0.27-0.35-0.54-0.53-0.81C487.11,343.98,487.28,344.26,487.46,344.53z"/>
	<path class="st0" d="M157.29,341.6c0.09,0.17,0.21,0.34,0.27,0.52c0.01,0.04-0.15,0.14-0.24,0.21
		C157.32,342.08,157.31,341.84,157.29,341.6z"/>
	<path class="st0" d="M353.84,622.22c0.25-0.19,0.51-0.39,0.76-0.58C354.35,621.83,354.1,622.02,353.84,622.22z"/>
	<path class="st0" d="M264.77,321.14c0.43-0.74,0.86-1.48,1.29-2.22C267.11,320.52,266.89,321.37,264.77,321.14z"/>
	<path class="st0" d="M372.81,418.42c-0.67-0.75-1.35-1.5-2.02-2.25C371.46,416.92,372.14,417.67,372.81,418.42z"/>
	<path class="st0" d="M266.22,318.2c-0.57-0.96-1.81-2.13,0.66-2.17C266.66,316.75,266.44,317.47,266.22,318.2z"/>
	<path class="st0" d="M336.99,399.44c-0.72-0.51-1.44-1.02-2.17-1.54C335.54,398.41,336.27,398.92,336.99,399.44z"/>
	<path class="st0" d="M322.4,300.53c-0.74-0.2-1.48-0.39-2.22-0.59C320.91,300.13,321.66,300.33,322.4,300.53z"/>
	<path class="st0" d="M265.98,532.42c-0.2,0.49-0.4,0.98-0.6,1.47C265.58,533.4,265.78,532.91,265.98,532.42z"/>
	<path class="st0" d="M250.01,495.28c0.44,0.44,0.88,0.88,1.32,1.32C250.89,496.16,250.45,495.72,250.01,495.28z"/>
	<path class="st0" d="M290.29,302.14c-0.51,0.43-1.02,0.86-1.53,1.29C289.27,303.01,289.78,302.57,290.29,302.14z"/>
	<path class="st0" d="M246.35,490.16c0.44,0.44,0.88,0.88,1.33,1.32C247.24,491.04,246.8,490.6,246.35,490.16z"/>
	<path class="st0" d="M388.93,340.73c-0.51-0.43-1.02-0.86-1.53-1.29C387.91,339.86,388.42,340.29,388.93,340.73z"/>
	<path class="st0" d="M329.71,303.45c-0.51-0.19-1.03-0.38-1.54-0.57C328.68,303.07,329.2,303.26,329.71,303.45z"/>
	<path class="st0" d="M351.61,316.08c-0.5-0.26-1-0.52-1.5-0.77C350.61,315.56,351.11,315.82,351.61,316.08z"/>
	<path class="st0" d="M420.35,384.77c-0.19-0.74-0.38-1.48-0.57-2.22C419.97,383.29,420.16,384.03,420.35,384.77z"/>
	<path class="st0" d="M268.28,341.64c-0.18-0.5-0.35-0.99-0.53-1.49C267.92,340.65,268.1,341.14,268.28,341.64z"/>
	<path class="st0" d="M324.57,278.54c-0.48,0.01-0.96,0.01-1.43,0.02C323.62,278.55,324.1,278.55,324.57,278.54z"/>
	<path class="st0" d="M392.57,342.37c-0.5-0.25-1-0.5-1.5-0.75C391.57,341.87,392.07,342.12,392.57,342.37z"/>
	<path class="st0" d="M356.22,564.58c0.17-0.5,0.35-1,0.52-1.5C356.56,563.58,356.39,564.08,356.22,564.58z"/>
	<path class="st0" d="M381.6,334.34c-0.52-0.26-1.04-0.52-1.56-0.79C380.56,333.82,381.08,334.08,381.6,334.34z"/>
	<path class="st0" d="M379.47,332.95c-0.54-0.29-1.09-0.57-1.63-0.86C378.39,332.38,378.93,332.67,379.47,332.95z"/>
	<path class="st0" d="M423.47,405.92c0.01-0.48,0.02-0.95,0.03-1.43C423.48,404.97,423.48,405.45,423.47,405.92z"/>
	<path class="st0" d="M424.2,410.31c0.01-0.48,0.02-0.95,0.03-1.43C424.22,409.36,424.21,409.84,424.2,410.31z"/>
	<path class="st0" d="M379.62,519.98c0.17-0.5,0.34-1.01,0.51-1.51C379.96,518.97,379.79,519.48,379.62,519.98z"/>
	<path class="st0" d="M253.56,328.44c0.52-0.26,1.04-0.51,1.55-0.77C254.6,327.92,254.08,328.18,253.56,328.44z"/>
	<path class="st0" d="M252.06,324.79c-0.2,0.24-0.39,0.48-0.59,0.72C251.67,325.27,251.87,325.03,252.06,324.79z"/>
	<path class="st0" d="M373.57,418.97c-0.26-0.19-0.52-0.38-0.78-0.57C373.05,418.59,373.31,418.78,373.57,418.97z"/>
	<path class="st0" d="M276.34,288.23c-0.24,0.19-0.49,0.39-0.73,0.58C275.85,288.62,276.1,288.42,276.34,288.23z"/>
	<path class="st0" d="M402.81,435.74c-0.21-0.19-0.43-0.38-0.64-0.57C402.38,435.36,402.6,435.55,402.81,435.74z"/>
	<path class="st0" d="M288.12,409.62c-0.27,0.19-0.54,0.39-0.81,0.58C287.58,410.01,287.85,409.82,288.12,409.62z"/>
	<path class="st0" d="M341.4,401.41c-0.24-0.19-0.49-0.39-0.73-0.58C340.91,401.02,341.16,401.21,341.4,401.41z"/>
	<path class="st0" d="M369.87,549.22c0.26-0.18,0.52-0.36,0.77-0.53C370.38,548.87,370.12,549.04,369.87,549.22z"/>
	<path class="st0" d="M401.35,350.24c-0.26-0.19-0.51-0.39-0.77-0.58C400.84,349.85,401.09,350.04,401.35,350.24z"/>
	<path class="st0" d="M266.1,334.29c-0.24-0.06-0.48-0.12-0.72-0.18C265.62,334.17,265.86,334.23,266.1,334.29z"/>
	<path class="st0" d="M251.47,325.51c-0.24,0.26-0.47,0.52-0.71,0.78C251,326.03,251.23,325.77,251.47,325.51z"/>
	<path class="st0" d="M274.13,289.69c-0.24,0.19-0.48,0.39-0.71,0.58C273.66,290.07,273.89,289.88,274.13,289.69z"/>
	<path class="st0" d="M302.69,474.97c-0.93,8.91-7.42,12.05-14.38,14.34c-11.21,3.69-21.24,1.03-29.94-6.71
		c-3.13-2.78-3.27-5.92-0.87-8.37c2.12-2.16,6.14-1.66,9.02,0.38c2.81,1.99,6.16,4.73,9.16,4.61c5.32-0.22,11.46,0.76,15.74-4
		c3.08-3.43,6.2-3.59,9.64-0.63C301.44,474.92,302.12,474.86,302.69,474.97z"/>
	<path class="st0" d="M364.01,490.74c-7.72,0.36-14.09-3.32-19.96-8.11c-2.35-1.91-2.58-5.94-0.71-8.09
		c2.32-2.67,5.53-2.98,8.15-0.35c7.7,7.71,19.08,7.09,26.52,0.07c2.16-2.04,6.87-1.85,8.61,0.17c1.82,2.11,1.17,6.54-1.46,8.66
		C379.08,488.01,372.25,491.01,364.01,490.74z"/>
</g>
</svg>
