<?xml version="1.0" encoding="utf-8"?>
<!-- Generator: Adobe Illustrator 27.6.1, SVG Export Plug-In . SVG Version: 6.00 Build 0)  -->
<svg version="1.1" id="Capa_1" xmlns="http://www.w3.org/2000/svg" xmlns:xlink="http://www.w3.org/1999/xlink" x="0px" y="0px"
	 viewBox="0 0 595.28 841.89" style="enable-background:new 0 0 595.28 841.89;" xml:space="preserve">
<style type="text/css">
	.st0{fill:#77655C;}
	.st1{fill:#EDE7DF;}
</style>
<g>
	<g>
		<circle class="st0" cx="302.79" cy="397" r="131"/>
	</g>
</g>
<g transform="translate(0.000000,512.000000) scale(0.100000,-0.100000)">
	<path class="st1" d="M2987.34,1955c-275.95-20.99-519.65-185.89-640.74-432.94c-71.8-146.95-95.53-312.16-68.15-473.41
		c12.17-71.5,34.68-142.08,66.93-209.32c10.04-20.38,17.95-38.33,17.95-39.86c0-1.83-18.25-68.46-40.77-148.47
		c-61.15-218.45-57.5-202.63-53.55-216.62c3.96-14.3,19.47-29.21,34.08-31.95c8.21-1.52,46.55,8.21,174.64,43.81
		c90.06,25.25,169.46,47.46,176.46,49.29c11.56,3.35,13.69,2.74,47.16-13.39c112.57-54.76,219.97-79.71,345.01-79.41
		c161.25,0,313.37,47.77,442.68,138.13c160.64,112.57,272.6,278.99,314.59,468.23c24.34,110.44,24.34,229.71,0,340.76
		c-62.67,284.77-285.99,513.57-570.16,584.15c-44.12,10.95-84.88,17.34-136.91,21.3C3051.23,1958.65,3034.19,1958.65,2987.34,1955z
		 M3130.03,1862.51c275.04-33.77,506.26-234.88,579.28-503.83c27.99-103.14,31.03-219.97,7.91-326.76
		c-47.46-219.97-208.71-408.91-419.86-492.57c-83.36-32.86-160.95-47.46-251.92-47.46c-112.57,0-210.84,23.43-313.37,74.84
		c-27.99,14-53.55,25.56-56.89,25.56s-70.89-17.95-149.99-39.86c-78.8-22.21-144.52-39.25-145.73-38.33
		c-0.91,1.22,16.12,66.93,38.03,145.73c22.21,79.1,40.16,146.65,40.16,149.69c0,3.35-11.56,29.51-25.86,57.81
		c-50.2,101.62-70.28,179.81-73.63,287.82c-2.74,93.4,6.39,160.34,34.08,242.79c57.81,173.42,184.68,318.24,349.88,399.47
		c67.85,33.16,150.91,57.81,223.62,66.33C3004.07,1867.99,3089.26,1867.38,3130.03,1862.51z"/>
	<path class="st1" d="M2803.57,1595.99c-29.21-7-45.33-17.95-87.62-60.24c-38.94-38.94-42.29-43.2-57.2-73.32
		c-24.04-49.29-28.6-70.28-28.9-133.87c-0.3-59.94,4.56-89.75,24.34-146.95c67.85-195.93,258.61-367.83,455.76-410.43
		c24.95-5.48,40.46-6.69,82.45-6.69c45.94,0,55.07,0.91,80.93,7.91c54.16,14.6,86.71,34.99,135.39,84.88
		c44.72,45.94,55.98,69.37,55.98,116.83c0,50.2-10.65,70.59-63.59,123.83c-34.99,35.29-44.72,43.2-62.07,51.11
		c-29.82,13.39-59.33,17.04-89.14,10.95c-33.16-6.69-52.33-17.04-82.15-44.72c-40.16-37.12-31.34-40.77-129.61,57.5
		c-98.58,98.27-94.92,90.06-57.5,129.61c27.08,28.9,37.73,48.38,44.72,80.93c7.61,36.21,0.3,74.84-20.08,106.49
		c-4.87,7.91-25.86,30.42-46.25,50.5c-38.64,37.73-55.98,48.98-84.88,55.68C2858.03,1599.95,2819.39,1599.64,2803.57,1595.99z
		 M2861.38,1506.54c13.69-5.78,63.28-53.85,71.19-69.06c7.3-14,7.61-38.94,0.91-51.72c-2.74-5.17-14.6-19.78-26.17-31.95
		c-12.17-12.78-24.34-29.51-29.21-39.86c-7.3-15.21-8.21-20.99-8.21-49.29c0-51.42,0.3-51.72,104.36-155.47
		c104.36-104.36,105.27-104.66,155.77-104.66c28.29,0,34.08,0.91,49.29,8.21c10.34,4.87,27.08,17.04,39.86,29.21
		c27.08,25.86,36.81,31.03,56.89,31.03c21.6,0,33.77-7.3,64.5-38.94c36.81-37.42,43.2-56.29,29.51-84.58
		c-9.13-19.17-58.11-64.5-82.15-76.37c-93.1-45.64-227.27-16.43-352.01,76.67c-153.64,114.7-246.13,304.25-211.76,435.07
		c8.21,32.55,22.21,55.68,51.42,86.41C2812.4,1509.89,2833.09,1518.41,2861.38,1506.54z"/>
</g>
</svg>
