<svg width="128" height="123" viewBox="0 0 128 123" fill="none" xmlns="http://www.w3.org/2000/svg">
<g id="logo-home">
<path id="Vector" d="M84.7836 116.701C93.5144 113.762 101.587 108.834 108.054 102.24C119.16 91.0448 125.382 75.4446 125.648 59.6711C125.352 59.6673 125.087 59.5351 124.906 59.327M84.7836 116.701L124.894 58.0197C124.9 58.2078 124.905 58.396 124.907 58.5842C124.905 58.6102 124.904 58.6364 124.904 58.6629V58.6664V58.667H124.908C124.908 58.6681 124.908 58.6692 124.908 58.6702L124.904 58.6703C124.904 58.6782 124.904 58.6861 124.904 58.6941C124.906 58.9053 124.906 59.1163 124.906 59.327M84.7836 116.701C93.6264 113.636 101.465 108.559 107.815 102.006C107.815 102.005 107.816 102.005 107.816 102.004C118.413 91.0655 124.862 76.0117 124.906 59.327M84.7836 116.701L124.906 59.327M126.908 58.6612C126.866 54.3755 125.933 50.1565 124.444 46.2018C123.733 44.2564 122.964 42.2599 121.899 40.3488L121.9 40.3488L121.894 40.3386C121.103 38.9568 119.973 37.2149 118.115 36.3863L118.109 36.3836C116.743 35.7854 115.159 35.8773 113.849 36.4462C112.537 37.0161 111.381 38.1207 111.012 39.6742C110.399 42.0569 110.694 44.513 110.958 46.7088C111.008 47.1309 111.058 47.5433 111.1 47.9438L111.102 47.9675C111.124 48.1324 111.145 48.297 111.166 48.4615C111.672 52.3928 112.161 56.1939 111.991 59.954L111.991 59.9594C111.839 63.7835 110.918 67.5507 108.843 70.6338C106.669 73.7415 103.792 76.4367 100.548 78.361C95.0916 81.5967 89.4408 82.1738 84.6917 80.4923C79.9496 78.8133 75.9821 74.8388 73.9628 68.7198C73.96 68.7114 73.9571 68.703 73.954 68.6946C73.5381 67.539 73.162 66.0543 72.8326 64.7541C72.8055 64.6474 72.7788 64.542 72.7524 64.438L72.7517 64.4352C72.0818 61.8293 71.2541 59.2624 70.0669 56.7591C68.1782 52.7279 64.889 48.4606 60.0405 47.2332C55.2733 45.9665 50.5416 47.6771 46.6577 49.5815C46.6495 49.5856 46.6413 49.5897 46.6333 49.5939C46.6235 49.5991 46.6137 49.6044 46.6041 49.6099C43.7205 51.2475 40.1343 50.669 37.2704 48.7081L37.2583 48.7C34.2256 46.688 31.9108 43.5688 30.2109 40.1907L30.2109 40.1907L30.2068 40.1826C29.3226 38.4644 28.6668 36.6196 27.9948 34.7138L27.9949 34.7137L27.9926 34.7075C26.8416 31.5103 24.5394 27.6054 20.3839 26.9019L20.3839 26.9018L20.3782 26.9009C16.4398 26.2574 12.7227 28.4456 10.189 30.8471C10.1482 30.8858 10.1107 30.9278 10.077 30.9728C3.5631 39.6573 0.340824 50.6896 1.11312 61.5268L1.11307 61.5268L1.11384 61.5363C2.37688 77.1537 10.4598 92.3059 22.1224 103.522C33.7844 114.738 49.108 122.095 64.9341 121.997C99.9834 122.025 127.113 93.7528 126.905 58.7547C126.907 58.7238 126.909 58.6926 126.908 58.6612ZM119.406 41.8075C120.393 43.4563 121.173 45.2807 121.93 47.1703L121.932 47.1748C122.694 49.0529 123.351 50.8921 123.767 52.8267L123.77 52.8426C124.222 54.7869 124.591 56.7001 124.658 58.6101C124.657 58.6287 124.657 58.6474 124.657 58.6662C124.644 74.5316 118.49 90.3007 107.344 101.536L107.34 101.54C93.2003 115.956 71.2415 122.27 51.7592 116.99L51.7574 116.99C27.6997 110.518 6.80075 86.3715 4.94902 61.271C4.31973 51.3621 7.28849 41.3978 13.2857 33.5274C14.2481 32.7189 15.7061 31.7399 17.2296 31.258C18.7805 30.7675 20.2278 30.8323 21.3891 31.8766L21.4069 31.8922C22.751 33.0445 23.5692 34.8908 24.2339 36.8456C24.8251 38.6326 25.51 40.4161 26.3574 42.1289C28.3029 46.0748 31.0124 49.8184 34.8055 52.3947C38.1745 54.7417 42.8848 55.9316 47.029 54.3519C47.0473 54.3449 47.0653 54.3374 47.0832 54.3294C47.3273 54.2196 47.5712 54.109 47.815 53.9985C49.5486 53.2128 51.2778 52.4292 53.0397 51.9169C55.0323 51.3376 56.9723 51.1369 58.8654 51.6629L58.8654 51.6629L58.8744 51.6653C62.0974 52.5285 64.3933 55.454 65.9705 58.7351L65.9704 58.7351L65.974 58.7423C67.2806 61.4052 68.0687 64.3864 68.8656 67.4013C68.9722 67.8043 69.0789 68.2079 69.187 68.6115C69.1902 68.6235 69.1937 68.6355 69.1974 68.6475C70.0092 71.2792 71.096 73.85 72.6357 76.2202C79.4487 86.8145 92.587 88.1399 102.65 81.8741C105.473 80.1658 107.958 77.9512 110.088 75.4835C117.303 67.4573 115.957 56.7499 114.452 47.5229C114.396 47.0114 114.321 46.49 114.244 45.9568C114.116 45.0598 113.982 44.1292 113.926 43.1557C113.838 41.6272 113.992 40.4467 114.489 39.7388C114.611 39.6058 114.835 39.4496 115.155 39.314C115.481 39.176 115.833 39.0908 116.12 39.0642C116.711 39.0248 117.275 39.2737 117.853 39.7948C118.441 40.3254 118.955 41.0633 119.406 41.8075Z" fill="#EDE7DF" stroke="#EDE7DF" stroke-width="2" stroke-linejoin="round"/>
<path id="Vector_2" d="M26.2329 37.7373C25.8833 38.1509 25.9264 38.7677 26.3302 39.1286L26.5159 39.2946C26.9252 39.6603 27.5528 39.6279 27.9221 39.2218C34.3447 32.1597 43.0853 27.3324 52.4319 25.6985C52.4408 25.697 52.4497 25.6953 52.4586 25.6935C66.1792 22.9086 81.2965 29.5682 87.6365 42.1971L87.6444 42.2126C90.0354 46.7755 91.2695 51.9149 91.4102 57.0926C91.4106 57.1064 91.4112 57.1201 91.4122 57.1339C91.4146 57.169 91.4126 57.2446 91.4 57.393C91.398 57.4167 91.3955 57.4439 91.3928 57.4737C91.3836 57.5759 91.3718 57.7074 91.3665 57.8243C90.4891 66.3742 88.2095 75.0177 82.5431 81.4352C82.2031 81.8202 82.2101 82.4001 82.5592 82.7768L82.7284 82.9594C83.0902 83.3498 83.6943 83.3884 84.1028 83.0473C85.0924 82.2211 86.021 81.3132 86.8763 80.3366L86.8808 80.3314C89.4249 77.3858 91.306 73.926 92.6941 70.3498L92.6943 70.3493C94.2576 66.3158 95.2803 62.0739 95.7684 57.7758C95.7709 57.754 95.7726 57.7321 95.7737 57.7102C96.1871 48.9553 92.8411 40.1511 86.9841 33.7229C69.9884 14.9248 41.5131 19.6638 26.2329 37.7373Z" fill="#EDE7DF" stroke="#EDE7DF" stroke-width="2" stroke-linejoin="round"/>
<path id="Vector_3" d="M112.282 16.0458L112.282 16.0451C112.485 6.53128 103.358 -0.803427 94.1057 3.03646C85.1358 6.74765 82.9245 18.9721 89.9277 25.6371L89.9289 25.6382C98.6168 33.8788 112.025 27.7384 112.282 16.0458ZM103.604 7.21822C107.173 8.55914 109.943 11.7032 110.035 16.0431C110.135 21.8253 105.154 26.3639 99.4926 26.1667L99.4777 26.1663C90.7771 25.9923 86.4442 15.3291 92.7447 9.30161L92.7447 9.30163L92.7494 9.29712C95.7487 6.39022 100.021 5.87212 103.604 7.21822Z" fill="#EDE7DF" stroke="#EDE7DF" stroke-width="2" stroke-linejoin="round"/>
<path id="Vector_4" d="M3.90652 53.2408C3.67163 52.8603 3.21272 52.682 2.78258 52.8041C2.69724 52.8283 2.61715 52.8632 2.54359 52.907L2.42684 52.9583C2.17304 53.0696 1.97683 53.2813 1.88505 53.5428C1.79326 53.8043 1.81412 54.0922 1.94265 54.3378C2.71549 55.8142 3.81553 57.031 4.81871 58.1406C4.98125 58.3204 5.14125 58.4974 5.29691 58.6722C5.30633 58.6828 5.31598 58.6932 5.32585 58.7034C11.3006 64.8651 18.5064 71.002 26.8765 73.9479L26.8948 73.9542C29.2947 74.747 32.0809 75.1749 34.7372 74.5779L34.739 74.5775C37.6553 73.9162 40.3956 72.5571 42.8931 71.3036C43.0031 71.2502 43.1125 71.197 43.2212 71.1441C45.4222 70.0732 47.3629 69.129 49.4933 69.1078V69.1079L49.5053 69.1076C50.7729 69.0799 51.999 69.4963 53.1755 70.187C56.5878 72.4043 58.9437 75.8749 61.2786 79.5475C64.962 85.6825 69.6978 91.4082 75.8196 95.3864C85.5953 101.873 97.7082 102.372 107.509 95.4764C111.286 92.9002 114.359 89.3734 117.193 86.0114L117.204 85.9978C120.847 81.5163 124.128 76.4425 125.786 70.7189C126.974 66.752 127.15 62.5655 126.902 58.6088C126.869 58.0817 126.432 57.6712 125.904 57.6712H125.656C125.123 57.6712 124.684 58.0896 124.658 58.6221C124.489 62.0524 124.183 65.3967 123.132 68.5283L123.125 68.548C122.15 71.6667 120.582 74.6617 118.725 77.3932L118.725 77.3934C116.375 80.8524 113.604 84.0529 110.609 87.027C110.604 87.0329 110.598 87.0388 110.592 87.0449C107.781 89.9801 104.498 92.4696 100.811 94.0186L100.795 94.0255C91.7086 98.0292 81.5907 95.3656 74.1093 88.9565L74.1094 88.9565L74.1004 88.9489C70.3014 85.7712 67.1511 81.7666 64.4831 77.5113L64.4708 77.4923C62.0225 73.777 59.1503 69.6639 55.008 67.1265C54.9862 67.1132 54.964 67.1007 54.9413 67.0891C54.7997 67.0166 54.5735 66.8984 54.3611 66.7873C54.2368 66.7224 54.1172 66.6598 54.0221 66.6104C53.9955 66.5966 53.9682 66.584 53.9404 66.5726L53.2924 66.307L53.2897 66.3059C51.0848 65.4097 48.561 65.4427 46.4235 66.1202C44.3264 66.768 42.3687 67.7898 40.5152 68.7573C40.0828 68.983 39.6561 69.2057 39.2345 69.42C36.9664 70.5734 34.7893 71.5218 32.3791 71.7277C28.7747 71.8134 24.8209 70.2891 20.9877 68.0575C17.1698 65.8349 13.5845 62.9783 10.7441 60.5499C10.4455 60.275 10.1466 60.0023 9.84884 59.7306C7.60062 57.6793 5.41626 55.6862 3.90652 53.2408Z" fill="#EDE7DF" stroke="#EDE7DF" stroke-width="2" stroke-linejoin="round"/>
<path id="Vector_5" d="M15.0162 94.246C15.1588 94.7761 15.7022 95.0921 16.2334 94.9539L16.4728 94.8917C16.999 94.7549 17.3194 94.2228 17.1943 93.6938C16.7381 91.7642 17.1055 89.6881 18.1436 87.9878L18.144 87.9872C20.2657 84.506 24.4418 82.4952 28.554 82.3744L28.554 82.3745L28.5657 82.374C32.6481 82.2058 36.6031 84.1929 39.1962 87.3985C39.203 87.4069 39.21 87.4153 39.2171 87.4235C44.966 94.0747 51.8739 99.6098 59.2689 104.215C73.8178 113.444 93.0816 117.85 107.506 105.097C107.896 104.753 107.956 104.167 107.645 103.75L107.497 103.551C107.18 103.126 106.585 103.022 106.143 103.315C98.802 108.18 89.904 109.853 81.3405 108.168L81.3301 108.166C66.5182 105.414 52.0926 96.2131 41.8027 85.1673C38.5586 81.3454 33.5095 78.9703 28.4188 79.3722C24.7978 79.5244 20.9506 81.1699 18.252 83.7726C15.5302 86.3976 13.8977 90.0909 15.0162 94.246Z" fill="#EDE7DF" stroke="#EDE7DF" stroke-width="2" stroke-linejoin="round"/>
</g>
</svg>
