<?xml version="1.0" encoding="utf-8"?>
<!-- Generator: Adobe Illustrator 27.6.1, SVG Export Plug-In . SVG Version: 6.00 Build 0)  -->
<svg version="1.1" id="Capa_1" xmlns="http://www.w3.org/2000/svg" xmlns:xlink="http://www.w3.org/1999/xlink" x="0px" y="0px"
	 viewBox="0 0 595.28 841.89" style="enable-background:new 0 0 595.28 841.89;" xml:space="preserve">
<style type="text/css">
	.st0{fill:#77655C;}
	.st1{fill:none;stroke:#EDE7DF;stroke-width:5;stroke-miterlimit:10;}
	.st2{fill:#EDE7DF;}
</style>
<path class="st0" d="M293.82,420.94c31.25,0,56.58-25.64,56.58-57.27c0-31.63-25.33-57.27-56.58-57.27s-56.58,25.64-56.58,57.27
	C237.24,395.3,262.57,420.94,293.82,420.94z"/>
<path class="st1" d="M308.95,391.18h-30.27c-6.6,0-12-5.4-12-12v-31.01c0-6.6,5.4-12,12-12h30.27c6.6,0,12,5.4,12,12v31.01
	C320.95,385.78,315.55,391.18,308.95,391.18z"/>
<circle class="st1" cx="293.82" cy="363.67" r="12.87"/>
<circle class="st2" cx="311.05" cy="346.43" r="4.37"/>
</svg>
