<?xml version="1.0" encoding="utf-8"?>
<!-- Generator: Adobe Illustrator 27.6.1, SVG Export Plug-In . SVG Version: 6.00 Build 0)  -->
<svg version="1.1" id="Capa_1" xmlns="http://www.w3.org/2000/svg" xmlns:xlink="http://www.w3.org/1999/xlink" x="0px" y="0px"
	 viewBox="0 0 595.28 841.89" style="enable-background:new 0 0 595.28 841.89;" xml:space="preserve">
<style type="text/css">
	.st0{fill:#77665D;}
	.st1{fill:#EDE7DF;stroke:#77665D;stroke-miterlimit:10;}
</style>
<path class="st0" d="M251.3,304.35c0.83,4.81,2.09,9.45,2.67,14.24c1.75,14.33,0.61,28.45-2.89,42.39
	c-3.67,14.55-10.2,27.91-17.03,41.18c-10.76,20.94-16.23,43.27-15.18,66.83c0.9,20.53,6.05,40.01,16.76,57.77
	c1.34,2.24,1.72,4.33-0.78,5.88c-2.6,1.6-3.96-0.32-5.15-2.23c-7.75-12.8-12.51-26.7-15.45-41.3c-2.4-12.07-2.89-24.29-1.87-36.49
	c1.53-18.46,6.8-35.93,15.18-52.43c6.32-12.41,12.56-24.83,16.18-38.41c5.17-19.51,5.88-38.94-0.34-58.33
	c-2.62-8.19-6.39-15.82-11.71-22.64c-0.73-0.95-1.6-1.85-1.75-3.06c-0.17-1.55,0.58-2.7,1.97-3.4c1.77-0.9,3.16-0.24,4.3,1.09
	c2.77,3.21,4.96,6.83,7.21,10.37c4.37,6.9,10.25,12.24,17.73,15.55c7.04,3.11,13.53,1.38,19.36-3.26
	c6.78-5.37,11.17-12.56,14.96-20.19c1-1.99,1.58-4.3,4.62-4.23c2.89,0.05,3.38,2.26,4.28,4.18c3.43,7.19,7.63,13.85,13.65,19.17
	c7.99,7.05,16.71,7.73,25.48,1.68c5.78-4.01,11.05-8.58,14.43-15.01c1.51-2.84,3.62-5.37,5.51-7.99c1.38-1.92,3.21-2.65,5.27-1.04
	c2.14,1.68,1.51,3.57,0.05,5.37c-9.28,11.39-14.07,24.73-16.03,39.04c-2.21,16.08,0.12,31.78,4.86,47.25
	c4.2,13.75,11.39,26.09,17.37,39.02c10.13,21.86,14.41,44.89,12.63,68.9c-1.38,19.07-6.7,37.07-16.06,53.81
	c-0.58,1.04-1.21,2.04-1.87,3.04c-1.19,1.77-2.67,3.08-4.81,1.63c-1.99-1.36-2.36-3.21-1.02-5.34c3.89-6.15,6.92-12.73,9.35-19.56
	c6.66-18.56,8.96-37.63,6.95-57.31c-2.04-19.87-8.82-38.12-18.15-55.58c-7.68-14.38-13.14-29.59-15.67-45.7
	c-2.31-14.65-1.89-29.27,2.09-43.68c0.15-0.53,0.39-1.02-0.1-1.8c-3.33,2.14-6.8,4.11-10.66,5.05c-11.32,2.79-19.99-2.04-27.52-9.84
	c-4.01-4.15-7.12-8.96-9.94-13.99c-1.53-0.05-1.55,1.36-2.04,2.16c-4.01,6.75-8.67,12.97-15.23,17.49
	c-9.06,6.27-18.44,6.58-28.08,1.29c-1.09-0.61-2.07-1.58-3.67-1.65L251.3,304.35z"/>
<path class="st0" d="M296.29,508.05c0.87-12.37-1.53-26.46-3.26-40.62c-0.68-5.47-1.36-10.93-1.87-16.4
	c-0.15-1.65-0.8-2.79-1.94-3.91c-4.86-4.79-9.67-9.62-14.5-14.43c-0.53-0.53-1.12-1.04-1.6-1.6c-1.46-1.7-1.75-3.47,0-5.17
	c1.7-1.65,3.38-1.09,4.86,0.36c5.25,5.17,10.45,10.4,15.64,15.6c2.82,2.82,9.74,2.82,12.49-0.05c4.71-4.93,9.43-9.86,14.09-14.84
	c1.75-1.87,3.64-3.11,5.78-0.92c1.99,2.02,0.8,3.94-0.83,5.66c-3.5,3.69-6.68,7.75-10.54,11.03c-4.88,4.15-6.27,9.35-6.83,15.35
	c-0.95,10.08-2.43,20.12-3.57,30.2c-0.39,3.43-0.97,6.83-0.95,10.3c0.1,9.52-0.02,19.07,0.07,28.59c0.02,2.58-0.8,4.47-3.43,4.52
	c-2.67,0.05-3.6-2.06-3.62-4.47c-0.02-5.73,0-11.49,0-19.22V508.05z M299.57,463.13c0.22,0.05,0.44,0.12,0.68,0.17
	c0.39-3.67,0.75-7.36,1.17-11.03c0.17-1.53-0.78-1.41-1.8-1.48c-1.43-0.07-1.55,0.63-1.38,1.8c0.51,3.5,0.92,7.02,1.36,10.52
	L299.57,463.13z"/>
<path class="st1" d="M303.31,325.92c0,6.92-0.02,13.82,0,20.75c0,2.38-0.36,4.49-3.26,4.59c-3.06,0.1-3.72-2.11-3.72-4.59
	c-0.02-13.73-0.02-27.45-0.02-41.18c0-2.07,0.56-3.89,2.79-4.59c1.6-0.51,2.65,0.39,3.62,1.51c0.83,0.95,0.53,2.04,0.56,3.09
	c0,6.8,0,13.63,0,20.43H303.31z"/>
<path class="st1" d="M299.21,384.71c-2.23-0.05-4.42-2.31-4.13-4.52c0.32-2.43,1.82-3.91,4.3-4.06c2.16-0.12,4.4,2.26,4.37,4.4
	c-0.02,2.24-2.21,4.23-4.57,4.18H299.21z"/>
<path class="st0" d="M305.23,409.8h-11.44v23.49h11.44V409.8z"/>
</svg>
